<?xml version="1.0" standalone="no"?>
<!DOCTYPE svg PUBLIC "-//W3C//DTD SVG 20010904//EN"
 "http://www.w3.org/TR/2001/REC-SVG-20010904/DTD/svg10.dtd">
<svg version="1.0" xmlns="http://www.w3.org/2000/svg"
 width="2160.000000pt" height="2160.000000pt" viewBox="0 0 2160.000000 2160.000000"
 preserveAspectRatio="xMidYMid meet">

<g transform="translate(0.000000,2160.000000) scale(0.100000,-0.100000)"
fill="#000000" stroke="none">
<path d="M4480 21130 c-85 -9 -175 -22 -200 -28 -25 -6 -88 -18 -140 -27 -105
-19 -292 -66 -379 -95 -31 -10 -96 -31 -146 -45 -112 -34 -375 -139 -515 -207
-357 -172 -518 -269 -828 -499 -529 -393 -931 -836 -1288 -1419 -307 -501
-518 -1064 -575 -1535 -16 -130 -11 -12488 5 -12625 3 -30 10 -73 16 -95 5
-22 14 -71 20 -110 9 -64 50 -235 99 -410 52 -190 185 -509 216 -521 7 -3 11
-13 9 -22 -2 -9 0 -24 6 -32 9 -13 11 -13 20 0 7 11 8 7 4 -16 -4 -23 -2 -33
9 -37 9 -3 13 -13 11 -24 -3 -10 4 -29 15 -42 12 -13 21 -32 21 -43 0 -10 7
-18 18 -19 10 0 12 -3 4 -6 -17 -7 -5 -23 19 -23 16 0 17 -3 7 -19 -10 -17 -6
-28 27 -78 21 -32 38 -60 37 -63 0 -3 7 -14 17 -25 10 -11 24 -36 30 -56 6
-20 31 -64 54 -99 23 -34 58 -86 77 -115 58 -87 133 -185 142 -185 4 0 8 -5 8
-11 0 -27 206 -266 404 -469 224 -229 382 -366 643 -556 117 -85 201 -138 443
-281 87 -51 347 -180 433 -214 26 -10 58 -25 70 -33 30 -20 317 -126 447 -165
58 -18 125 -38 150 -46 195 -59 503 -114 761 -135 201 -16 12268 -8 12399 9
173 22 583 110 761 165 177 53 363 121 494 178 99 44 444 215 480 238 17 11
37 23 45 27 35 17 158 94 306 193 618 414 1138 959 1528 1603 89 146 253 482
311 637 20 52 40 104 44 115 16 37 63 198 102 355 50 195 85 413 98 600 7 93
12 2328 15 6225 4 5863 4 6085 -14 6220 -38 287 -75 450 -162 715 -78 239
-146 400 -254 605 -70 133 -192 339 -246 415 -21 30 -69 98 -106 151 -265 378
-674 794 -1062 1080 -383 282 -852 533 -1262 674 -311 108 -604 177 -943 222
-110 15 -660 17 -6335 19 -5862 2 -6224 1 -6370 -16z m8288 -2767 l2 -211
-212 -4 -213 -3 -66 -31 c-85 -40 -138 -89 -173 -158 -24 -47 -29 -72 -34
-161 l-5 -105 -86 0 c-47 0 -336 0 -641 0 -305 0 -849 0 -1208 0 l-654 0 7
437 c4 241 9 441 11 445 3 4 739 7 1637 5 l1632 -2 3 -212z m-5441 -511 c82
-112 190 -215 315 -300 80 -54 278 -149 372 -177 208 -63 30 -59 2626 -61
1301 -1 2450 -5 2555 -8 198 -7 306 -25 491 -81 294 -90 535 -285 647 -526
140 -301 68 -641 -193 -913 -175 -182 -395 -291 -725 -358 -108 -22 -121 -22
-825 -20 -1536 4 -5698 2 -5755 -3 -154 -14 -264 -28 -310 -40 -27 -7 -69 -16
-93 -19 -23 -4 -73 -16 -110 -27 -37 -12 -89 -28 -117 -36 -27 -9 -68 -23 -90
-33 -22 -10 -62 -27 -88 -38 -245 -107 -511 -325 -664 -546 -93 -135 -193
-360 -221 -501 -6 -27 -16 -79 -24 -115 -18 -94 -16 -305 6 -424 21 -116 62
-246 105 -334 17 -34 31 -66 31 -70 0 -5 9 -18 20 -30 11 -12 24 -32 29 -45
16 -41 156 -220 217 -277 183 -172 389 -308 574 -380 30 -12 71 -30 90 -40 19
-10 64 -26 100 -37 36 -11 103 -32 150 -47 183 -56 489 -105 850 -135 275 -23
910 -23 910 1 0 4 -24 19 -52 32 -119 53 -158 73 -263 139 -300 187 -487 377
-617 624 -107 204 -165 440 -152 623 4 52 10 105 15 118 5 13 9 36 9 52 0 44
65 235 110 322 86 166 164 270 317 419 151 148 259 226 458 330 141 74 443
193 515 204 22 3 141 30 242 54 51 12 40 -2 -14 -19 -24 -7 -58 -19 -76 -27
-18 -8 -72 -30 -120 -49 -192 -78 -437 -219 -592 -342 -118 -94 -267 -253
-363 -389 -72 -103 -159 -297 -182 -412 -60 -288 -32 -519 95 -776 131 -267
420 -542 735 -702 55 -28 123 -58 150 -68 28 -10 55 -22 60 -26 21 -15 151
-58 195 -64 25 -3 79 -12 120 -20 153 -30 229 -37 404 -36 99 0 181 2 183 4 1
2 5 127 8 278 16 914 17 935 39 1060 61 347 311 698 661 929 44 29 92 61 106
70 43 30 239 126 365 179 282 118 743 253 1144 335 213 43 363 66 371 58 7 -7
15 -341 25 -982 2 -195 7 -395 9 -445 2 -49 7 -270 11 -490 4 -220 8 -402 10
-404 2 -3 50 10 107 28 56 18 156 50 222 71 225 72 726 206 885 236 280 53
475 84 625 100 28 3 88 10 135 15 140 17 648 23 820 10 337 -25 612 -77 884
-166 130 -43 342 -144 449 -214 43 -28 80 -51 83 -51 15 0 210 -166 282 -240
201 -208 362 -496 418 -750 40 -177 48 -448 19 -595 -1 -5 -5 -28 -9 -50 -33
-182 -103 -361 -208 -533 -129 -212 -328 -415 -548 -561 -128 -85 -403 -208
-565 -253 -38 -10 -92 -26 -120 -34 -78 -23 -226 -52 -390 -77 l-150 -22
-3100 -1 -3100 0 -95 -22 c-207 -46 -356 -119 -472 -231 -211 -200 -297 -465
-242 -737 31 -155 187 -411 288 -474 20 -12 36 -26 36 -32 0 -15 -22 -4 -108
56 -153 107 -297 300 -356 476 -48 145 -57 292 -26 415 111 434 494 731 1051
815 l144 22 2340 -3 2340 -4 109 38 c134 47 177 68 296 148 228 153 367 336
435 574 34 118 38 247 11 357 -19 82 -94 234 -151 308 -203 262 -549 434 -970
480 -70 7 -1153 11 -3610 13 l-3510 3 -185 26 c-102 15 -221 34 -265 43 -44
10 -99 21 -122 26 -148 30 -430 137 -601 228 -440 235 -739 557 -906 978 -33
84 -52 150 -77 274 -28 135 -31 490 -5 551 9 21 16 48 16 62 0 27 54 193 96
296 128 315 374 609 686 821 209 142 511 277 743 333 61 14 137 33 171 41 34
8 124 24 200 35 135 19 188 20 1741 20 881 0 1604 3 1607 8 2 4 7 243 11 532
4 289 8 526 10 528 5 5 2558 2 2564 -3 2 -3 6 -63 6 -133 6 -422 17 -928 21
-934 2 -3 111 -7 242 -8 130 -1 257 -2 282 -3 124 -2 204 14 296 57 121 58
195 109 275 192 77 81 119 151 151 254 19 63 23 96 23 210 0 132 -1 137 -37
222 -68 164 -181 280 -356 367 -91 46 -146 65 -227 80 -43 8 -654 12 -2130 14
-2221 3 -2115 1 -2353 51 -354 75 -672 274 -836 521 -45 68 -136 245 -136 265
0 21 19 9 47 -28z m4907 -6174 c6 -26 20 -1187 17 -1303 l-1 -30 -1487 3
c-819 2 -1494 5 -1502 8 -10 3 -12 15 -7 43 3 21 6 161 6 311 1 150 5 280 10
290 5 9 26 22 47 28 168 52 655 183 788 211 55 12 120 28 145 35 25 8 56 16
70 19 82 16 403 88 410 92 4 3 26 7 48 10 23 3 80 14 129 25 196 44 275 61
413 90 80 17 219 46 310 65 91 20 239 51 330 71 91 19 179 38 195 43 53 16 74
13 79 -11z m-191 -2730 c7 -432 15 -525 77 -883 9 -50 56 -250 83 -357 20 -76
110 -342 155 -452 50 -126 167 -361 208 -419 19 -26 34 -53 34 -60 0 -7 -21
-46 -47 -87 -70 -112 -653 -1261 -771 -1520 -11 -25 -80 -166 -152 -315 -73
-148 -188 -389 -257 -535 -376 -796 -474 -995 -488 -989 -12 5 -13 77 -3 199
4 47 10 173 13 280 3 107 8 261 10 341 3 80 8 687 11 1349 4 847 9 1209 16
1218 6 7 37 31 69 54 68 47 123 123 140 191 15 63 6 183 -19 239 -32 74 -118
157 -197 193 -125 58 -234 54 -353 -12 -110 -60 -178 -168 -189 -298 -10 -126
32 -213 153 -315 l65 -55 1 -1240 c2 -1246 8 -1682 27 -1917 11 -127 4 -187
-19 -173 -6 4 -24 36 -41 73 -18 37 -85 176 -150 310 -66 134 -119 245 -119
247 0 9 -104 224 -317 655 -301 607 -317 641 -331 665 -6 11 -103 205 -215
430 -112 226 -223 446 -247 490 -40 75 -60 113 -158 298 -21 39 -57 100 -80
135 l-42 63 69 128 c38 71 72 139 76 152 4 13 18 48 31 77 13 29 35 80 50 115
14 34 31 76 39 92 7 17 34 91 59 166 40 117 65 205 132 469 68 268 111 702
114 1159 0 112 3 208 6 213 3 4 578 8 1278 8 l1273 0 6 -382z m-11153 -5405
c0 -7 -4 -13 -10 -13 -5 0 -7 6 -4 14 3 8 1 17 -5 21 -6 3 -11 12 -11 18 1 16
30 -23 30 -40z m830 32 c10 -12 10 -15 -4 -15 -9 0 -16 7 -16 15 0 8 2 15 4
15 2 0 9 -7 16 -15z m8056 -39 c133 -86 230 -147 354 -225 306 -190 470 -296
470 -304 0 -5 -3997 -2 -4950 4 -110 1 -120 0 -121 -18 -1 -17 -2 -17 -6 -1
-4 16 -25 17 -227 16 -122 -1 -226 1 -231 4 -6 3 -32 2 -60 -2 -27 -4 -54 -5
-59 -2 -6 3 -57 4 -114 3 -108 -2 -152 11 -152 44 0 18 27 20 33 3 2 -7 8 -10
13 -5 12 12 -22 41 -40 34 -25 -10 -32 -38 -13 -49 33 -18 16 -27 -50 -26 -38
0 -72 -1 -78 -2 -46 -10 -78 34 -43 59 26 18 36 6 14 -18 -16 -17 -16 -19 5
-24 17 -5 20 -2 16 14 -4 14 0 19 14 19 10 0 23 9 29 19 16 32 11 38 -11 12
-11 -13 -22 -21 -25 -18 -3 3 4 16 16 29 18 19 19 24 6 26 -9 2 -16 7 -16 11
0 5 -12 9 -26 9 -16 0 -21 -3 -14 -8 7 -4 10 -12 6 -18 -3 -6 -2 -13 4 -17 5
-3 10 1 10 9 0 9 5 16 10 16 6 0 10 -4 10 -8 0 -13 -23 -32 -40 -32 -21 0 -42
-37 -35 -61 4 -11 2 -19 -4 -19 -6 0 -11 7 -11 15 0 8 -4 15 -10 15 -5 0 -10
-7 -10 -15 0 -8 -4 -15 -10 -15 -5 0 -10 9 -10 19 0 11 -5 23 -11 26 -6 4 -8
13 -5 21 3 8 -1 14 -9 14 -9 0 -15 -9 -15 -23 0 -13 -7 -32 -15 -43 -15 -18
-15 -18 -13 0 2 10 -3 21 -11 24 -10 3 -13 -1 -9 -14 4 -16 -1 -19 -29 -21
-19 -2 -33 2 -33 8 0 6 7 9 15 5 9 -3 15 0 15 8 0 18 50 51 51 34 0 -7 4 -3 9
10 5 12 18 22 29 22 18 0 19 3 9 25 -6 14 -19 25 -30 25 -13 0 -18 -7 -18 -25
0 -14 -5 -25 -11 -25 -6 0 -9 6 -6 13 2 6 -2 17 -8 22 -8 6 -9 19 -5 35 5 16
8 19 9 8 1 -26 14 -22 28 8 10 22 9 25 -5 23 -38 -3 -45 0 -32 16 10 12 10 15
-4 15 -9 0 -16 -7 -16 -16 0 -8 -4 -12 -10 -9 -5 3 -15 -3 -22 -15 -7 -11 -19
-20 -27 -20 -11 0 -11 3 -1 15 10 13 9 15 -9 15 -11 0 -21 -5 -21 -11 0 -5 -5
-7 -11 -4 -7 5 -5 13 5 24 9 10 13 21 9 25 -4 4 -3 10 2 14 19 14 35 50 23 54
-6 2 -11 22 -12 45 0 24 -5 39 -11 37 -6 -3 -21 9 -33 26 -19 25 -25 28 -36
18 -15 -14 -12 -28 5 -28 6 0 7 5 4 10 -3 6 -2 10 3 10 18 0 23 -33 7 -42 -22
-13 -9 -27 18 -20 20 5 21 4 7 -13 -14 -17 -13 -17 9 -10 17 5 22 4 19 -6 -6
-18 -39 -18 -56 -2 -16 15 -32 17 -32 3 0 -5 5 -10 11 -10 20 0 42 -32 45 -67
2 -27 -1 -33 -12 -29 -8 3 -21 9 -29 12 -8 3 -15 2 -15 -4 0 -5 7 -12 15 -16
13 -5 13 -9 3 -26 -11 -18 -10 -23 5 -31 24 -14 21 -28 -5 -22 -21 4 -22 3 -5
-10 18 -15 23 -47 7 -47 -5 0 -10 7 -10 15 0 8 -7 15 -16 15 -8 0 -22 -7 -30
-15 -20 -19 -53 -19 -60 0 -7 17 21 65 36 65 17 0 11 -25 -10 -38 -24 -14 -26
-32 -5 -32 8 0 15 7 15 15 0 8 6 15 13 15 8 0 21 8 29 18 17 20 23 72 8 72 -6
0 -10 -9 -10 -20 0 -11 -5 -20 -11 -20 -5 0 -8 4 -4 9 3 5 1 12 -5 16 -5 3
-10 -2 -11 -12 0 -15 -2 -14 -9 4 -6 16 -14 21 -26 16 -14 -5 -14 -3 -3 16 16
24 39 28 39 6 0 -8 5 -15 10 -15 6 0 10 7 10 15 0 8 5 15 10 15 6 0 10 11 10
25 0 14 5 25 10 25 6 0 10 5 10 10 0 19 -21 10 -30 -12 -5 -13 -9 -18 -9 -11
-1 7 -10 17 -21 23 -22 12 -60 -5 -60 -27 0 -7 -5 -13 -11 -13 -14 0 -40 -26
-33 -33 3 -3 -4 -15 -15 -26 -12 -12 -21 -29 -21 -38 0 -15 -2 -15 -9 -4 -5 8
-7 21 -3 29 4 11 1 14 -11 9 -21 -8 -21 -3 -1 29 10 14 23 23 30 20 8 -3 17 1
21 8 5 7 16 16 27 19 15 6 17 14 12 38 -5 25 -2 32 14 36 22 6 27 23 7 23 -18
0 -37 -21 -37 -41 0 -10 -5 -21 -10 -24 -7 -4 -9 2 -5 17 3 13 -1 37 -9 53
-14 27 -16 28 -16 8 0 -13 -4 -23 -10 -23 -5 0 -10 7 -10 15 0 9 -7 18 -15 21
-20 8 -19 44 1 44 11 0 14 6 9 20 -4 11 -2 20 4 20 6 0 11 4 11 10 0 6 -9 6
-22 1 -13 -4 -29 -6 -35 -4 -7 3 -13 0 -13 -6 0 -6 7 -11 16 -11 9 0 14 -6 12
-12 -3 -7 -13 -13 -24 -13 -14 0 -18 6 -16 24 3 34 23 56 33 39 6 -9 11 -10
19 -2 8 8 4 16 -14 28 -23 15 -26 15 -26 1 0 -9 -6 -18 -14 -21 -21 -8 -26
-40 -10 -62 7 -11 11 -22 7 -25 -10 -11 -23 3 -23 24 0 23 -8 24 -32 2 -16
-14 -18 -15 -18 0 0 9 10 23 22 31 12 9 18 16 13 16 -6 0 -3 5 5 10 12 7 12
12 2 22 -9 9 -12 9 -12 -1 0 -11 -3 -11 -15 -1 -12 10 -15 10 -15 -4 0 -9 6
-16 13 -16 19 0 -15 -20 -35 -20 -10 0 -18 4 -18 10 0 5 7 7 15 4 22 -9 18 6
-7 27 -11 11 -18 22 -14 27 11 11 166 9 166 -2 0 -6 5 -5 12 2 23 23 38 14 31
-19 -5 -25 -3 -31 8 -27 8 3 13 14 12 24 -1 10 3 21 8 24 12 8 169 5 197 -4
12 -4 22 -4 22 1 0 4 16 8 35 9 19 0 35 -3 35 -8 0 -4 10 -3 21 4 17 11 23 11
26 0 3 -6 10 -9 16 -5 19 11 300 12 315 1 6 -6 12 -6 12 -1 0 5 11 10 25 11
14 1 25 -3 25 -9 0 -8 4 -8 13 -1 8 7 598 10 1791 11 979 1 1781 2 1782 4 1 1
321 1 711 0 l710 -2 69 -45z m-8787 30 c7 -8 8 -17 3 -19 -4 -3 -13 3 -20 14
-14 22 0 26 17 5z m101 4 c0 -5 -2 -10 -4 -10 -3 0 -8 5 -11 10 -3 6 -1 10 4
10 6 0 11 -4 11 -10z m76 -4 c14 4 24 2 24 -5 0 -6 -7 -8 -16 -4 -13 5 -15 2
-9 -15 4 -13 2 -22 -4 -22 -6 0 -11 6 -11 14 0 21 -21 31 -31 15 -5 -8 -9 -9
-9 -3 0 15 24 37 28 24 2 -5 15 -7 28 -4z m68 -1 c-4 -8 -10 -12 -15 -9 -11 6
-2 24 11 24 5 0 7 -7 4 -15z m136 5 c8 -5 12 -12 9 -15 -8 -8 -39 5 -39 16 0
11 11 11 30 -1z m85 -9 c-3 -6 -11 -8 -17 -5 -6 4 -5 9 3 15 16 10 23 4 14
-10z m85 9 c0 -5 -7 -10 -16 -10 -8 0 -12 5 -9 10 3 6 10 10 16 10 5 0 9 -4 9
-10z m41 -13 c-13 -13 -26 -3 -16 12 3 6 11 8 17 5 6 -4 6 -10 -1 -17z m41 -2
c3 -13 1 -22 -3 -19 -9 5 -13 44 -5 44 2 0 6 -11 8 -25z m58 16 c0 -12 -39
-21 -45 -11 -3 5 3 11 12 13 29 8 33 7 33 -2z m90 -1 c0 -5 -7 -10 -15 -10 -8
0 -15 5 -15 10 0 6 7 10 15 10 8 0 15 -4 15 -10z m81 -13 c-13 -13 -26 -3 -16
12 3 6 11 8 17 5 6 -4 6 -10 -1 -17z m55 -2 c-1 -27 -11 -33 -19 -11 -3 7 0
19 6 25 15 15 15 15 13 -14z m84 12 c0 -7 -10 -13 -21 -14 -21 -2 -21 -1 -3
12 24 18 24 18 24 2z m200 3 c0 -5 -5 -10 -11 -10 -5 0 -7 5 -4 10 3 6 8 10
11 10 2 0 4 -4 4 -10z m66 1 c7 6 18 8 24 4 19 -12 10 -22 -17 -20 -40 3 -43
4 -43 17 0 9 3 9 12 0 8 -8 15 -8 24 -1z m80 -29 c-4 -3 -11 0 -16 8 -15 24
-11 33 6 15 9 -9 13 -19 10 -23z m234 28 c8 -5 11 -12 7 -16 -4 -4 -15 0 -24
9 -18 18 -8 23 17 7z m45 0 c-4 -6 -2 -17 5 -25 7 -9 8 -15 0 -20 -5 -3 -10 1
-10 9 0 9 -4 16 -10 16 -5 0 -10 7 -10 15 0 8 7 15 16 15 8 0 12 -5 9 -10z
m85 -6 c0 -8 -5 -12 -10 -9 -6 4 -8 11 -5 16 9 14 15 11 15 -7z m73 4 c9 2 17
-1 17 -6 0 -5 -12 -8 -27 -6 -15 1 -31 -2 -35 -9 -4 -6 -10 -8 -13 -5 -10 10
18 37 30 30 6 -4 18 -5 28 -4z m47 -20 c0 -23 -3 -29 -11 -21 -6 6 -8 20 -4
32 9 30 15 26 15 -11z m207 17 c-5 -13 -187 -16 -187 -3 0 5 20 8 45 7 24 -2
47 -1 49 2 9 9 96 4 93 -6z m111 3 c9 -9 12 -9 12 3 0 11 2 11 8 1 7 -10 15
-10 37 -2 18 7 31 7 40 0 6 -5 14 -7 18 -4 9 10 137 12 137 3 0 -8 -23 -13
-43 -10 -4 1 -10 -6 -13 -14 -5 -13 -8 -13 -27 0 -27 19 -37 19 -37 -1 0 -10
5 -14 15 -10 13 5 13 2 -1 -19 -16 -24 -15 -25 7 -25 22 0 22 0 4 -14 -26 -19
-38 -10 -31 24 6 32 -13 54 -38 44 -9 -3 -16 -1 -16 6 0 6 -5 8 -10 5 -8 -5
-7 -11 1 -21 6 -7 16 -11 22 -7 6 3 7 1 3 -5 -11 -18 -31 -14 -51 8 -10 11
-21 17 -26 15 -4 -3 -11 0 -14 5 -9 15 -34 -20 -28 -37 3 -7 0 -13 -6 -13 -6
0 -11 -7 -11 -16 0 -13 -3 -14 -14 -5 -8 7 -16 8 -18 4 -3 -4 -3 -2 -1 6 2 7
-1 19 -7 26 -8 9 -8 15 0 20 5 3 10 -1 10 -9 0 -9 5 -16 11 -16 6 0 9 7 5 15
-3 9 0 15 10 15 9 0 12 5 8 11 -3 6 0 15 7 20 18 12 23 11 37 -3z m299 -4 c8
-22 -15 -44 -26 -25 -10 16 -4 41 10 41 5 0 12 -7 16 -16z m27 7 c3 -5 15 -7
26 -4 11 3 20 0 20 -6 0 -6 -7 -11 -15 -11 -8 0 -15 -5 -15 -11 0 -18 -23 -4
-31 19 -8 21 4 31 15 13z m256 -9 c0 -7 -4 -11 -9 -7 -6 3 -13 -1 -18 -8 -14
-24 -51 -30 -57 -10 -3 11 -16 19 -32 19 -17 1 -24 -2 -20 -11 7 -18 -30 -49
-49 -41 -10 4 -15 15 -13 33 4 33 20 38 125 38 54 0 73 -4 73 -13z m-2930 -7
c-7 -8 -20 -15 -29 -15 -13 1 -13 3 3 15 26 19 42 19 26 0z m156 0 c12 -9 14
-14 6 -15 -7 0 -20 7 -28 15 -20 19 -4 20 22 0z m357 -5 c-3 -11 -7 -20 -9
-20 -2 0 -4 9 -4 20 0 11 4 20 9 20 5 0 7 -9 4 -20z m189 -2 c-7 -7 -12 -8
-12 -2 0 14 12 26 19 19 2 -3 -1 -11 -7 -17z m318 12 c0 -5 -4 -10 -10 -10 -5
0 -10 5 -10 10 0 6 5 10 10 10 6 0 10 -4 10 -10z m230 0 c0 -5 -2 -10 -4 -10
-3 0 -8 5 -11 10 -3 6 -1 10 4 10 6 0 11 -4 11 -10z m30 0 c0 -5 -5 -10 -11
-10 -5 0 -7 5 -4 10 3 6 8 10 11 10 2 0 4 -4 4 -10z m40 -10 c0 -11 7 -20 15
-20 8 0 15 -4 15 -10 0 -20 -27 -9 -38 15 -15 32 -15 35 -2 35 6 0 10 -9 10
-20z m47 14 c-3 -3 -12 -4 -19 -1 -8 3 -5 6 6 6 11 1 17 -2 13 -5z m253 -6 c0
-11 -28 -10 -35 1 -3 6 4 9 15 8 11 -1 20 -5 20 -9z m92 -1 c-15 -7 -29 -7
-44 0 -19 8 -16 10 22 10 38 0 41 -2 22 -10z m568 3 c0 -5 -4 -10 -9 -10 -6 0
-13 5 -16 10 -3 6 1 10 9 10 9 0 16 -4 16 -10z m-2010 -37 c-12 -8 -24 -12
-27 -9 -9 8 30 36 40 29 5 -3 -1 -12 -13 -20z m480 7 c0 -5 -4 -10 -10 -10 -5
0 -10 5 -10 10 0 6 5 10 10 10 6 0 10 -4 10 -10z m490 -5 c-7 -9 -15 -13 -19
-10 -3 3 1 10 9 15 21 14 24 12 10 -5z m160 5 c0 -5 -4 -10 -10 -10 -5 0 -10
5 -10 10 0 6 5 10 10 10 6 0 10 -4 10 -10z m180 0 c0 -5 -2 -10 -4 -10 -3 0
-8 5 -11 10 -3 6 -1 10 4 10 6 0 11 -4 11 -10z m498 -4 c-7 -8 -17 -12 -22 -9
-4 3 -2 9 5 14 22 13 31 11 17 -5z m72 4 c0 -5 -2 -10 -4 -10 -3 0 -8 5 -11
10 -3 6 -1 10 4 10 6 0 11 -4 11 -10z m44 -5 c-4 -8 -12 -15 -20 -15 -20 0
-17 18 4 23 9 3 18 5 19 6 1 0 0 -6 -3 -14z m400 2 c17 -12 16 -14 -13 -14
-19 0 -31 5 -31 14 0 7 6 13 13 13 7 0 21 -6 31 -13z m246 -1 c0 -8 10 -16 22
-18 20 -3 19 -4 -8 -18 -16 -8 -32 -19 -36 -25 -5 -6 -8 -6 -8 2 0 7 8 16 17
22 17 9 16 11 -1 30 -17 19 -17 21 -3 21 10 0 17 -6 17 -14z m-2425 -6 c-3 -5
-11 -10 -16 -10 -6 0 -7 5 -4 10 3 6 11 10 16 10 6 0 7 -4 4 -10z m75 0 c0 -5
-4 -10 -10 -10 -5 0 -10 5 -10 10 0 6 5 10 10 10 6 0 10 -4 10 -10z m380 0 c0
-5 -5 -10 -11 -10 -5 0 -7 5 -4 10 3 6 8 10 11 10 2 0 4 -4 4 -10z m570 0 c0
-5 -2 -10 -4 -10 -3 0 -8 5 -11 10 -3 6 -1 10 4 10 6 0 11 -4 11 -10z m505 0
c3 -5 1 -10 -4 -10 -6 0 -11 5 -11 10 0 6 2 10 4 10 3 0 8 -4 11 -10z m295 -6
c0 -8 -4 -12 -10 -9 -5 3 -10 10 -10 16 0 5 5 9 10 9 6 0 10 -7 10 -16z m430
7 c0 -5 -9 -13 -20 -16 -20 -6 -28 -35 -10 -35 6 0 10 5 10 10 0 6 7 10 16 10
12 0 14 -3 6 -13 -6 -7 -9 -23 -5 -35 3 -13 1 -22 -6 -22 -5 0 -8 7 -5 15 4
11 0 15 -16 15 -19 0 -20 -2 -10 -15 9 -10 9 -15 1 -15 -12 0 -12 0 -16 49 -2
26 2 35 16 38 10 3 19 9 19 14 0 5 5 9 10 9 6 0 10 -4 10 -9z m-795 -11 c3 -5
-1 -10 -9 -10 -9 0 -16 5 -16 10 0 6 4 10 9 10 6 0 13 -4 16 -10z m125 -12 c0
-13 -23 -5 -28 10 -2 7 2 10 12 6 9 -3 16 -11 16 -16z m912 -18 c-9 -17 -23
-30 -29 -30 -7 0 -13 -7 -13 -15 0 -8 -4 -15 -10 -15 -17 0 -11 15 20 59 34
47 58 47 32 1z m-2272 20 c0 -5 -2 -10 -4 -10 -3 0 -8 5 -11 10 -3 6 -1 10 4
10 6 0 11 -4 11 -10z m1005 -6 c-9 -9 -19 -13 -23 -10 -3 4 0 11 8 16 24 15
33 11 15 -6z m115 6 c0 -5 -2 -10 -4 -10 -3 0 -8 5 -11 10 -3 6 -1 10 4 10 6
0 11 -4 11 -10z m350 6 c0 -2 -7 -7 -16 -10 -8 -3 -12 -2 -9 4 6 10 25 14 25
6z m605 -7 c11 -16 1 -19 -13 -3 -7 8 -8 14 -3 14 5 0 13 -5 16 -11z m95 -2
c-8 -7 -21 -24 -27 -39 -7 -16 -17 -28 -23 -28 -5 0 -10 -8 -10 -17 0 -15 -2
-15 -9 -4 -7 10 -4 20 10 32 11 9 18 21 17 26 -4 13 25 42 42 42 13 0 13 -1 0
-12z m-2200 -7 c0 -5 -7 -10 -16 -10 -8 0 -12 5 -9 10 3 6 10 10 16 10 5 0 9
-4 9 -10z m220 -6 c0 -8 -5 -12 -10 -9 -6 4 -8 11 -5 16 9 14 15 11 15 -7z
m210 6 c0 -5 -5 -10 -11 -10 -5 0 -7 5 -4 10 3 6 8 10 11 10 2 0 4 -4 4 -10z
m375 0 c3 -5 1 -10 -4 -10 -6 0 -11 5 -11 10 0 6 2 10 4 10 3 0 8 -4 11 -10z
m120 0 c3 -5 -1 -10 -10 -10 -9 0 -13 5 -10 10 3 6 8 10 10 10 2 0 7 -4 10
-10z m595 -10 c-7 -4 -9 -16 -5 -29 3 -12 2 -21 -4 -21 -14 0 -19 32 -7 52 5
9 14 14 19 11 5 -3 4 -9 -3 -13z m270 10 c0 -5 -8 -10 -17 -10 -15 0 -16 2 -3
10 19 12 20 12 20 0z m200 0 c0 -5 -4 -10 -10 -10 -5 0 -10 5 -10 10 0 6 5 10
10 10 6 0 10 -4 10 -10z m-1813 -22 c-3 -8 -6 -5 -6 6 -1 11 2 17 5 13 3 -3 4
-12 1 -19z m493 7 c0 -24 -27 -29 -47 -10 -16 17 -16 17 4 11 12 -4 24 -2 28
4 9 14 15 12 15 -5z m170 -6 c0 -5 -4 -9 -10 -9 -5 0 -10 7 -10 16 0 8 5 12
10 9 6 -3 10 -10 10 -16z m510 11 c0 -5 -2 -10 -4 -10 -3 0 -8 5 -11 10 -3 6
-1 10 4 10 6 0 11 -4 11 -10z m197 -22 c-3 -7 -5 -2 -5 12 0 14 2 19 5 13 2
-7 2 -19 0 -25z m223 -3 c0 -5 -8 -19 -16 -30 l-16 -20 6 20 c3 11 1 27 -4 35
-7 12 -12 12 -29 -4 -12 -11 -21 -29 -21 -40 0 -17 2 -18 10 -6 5 8 12 11 16
8 3 -4 0 -14 -9 -22 -13 -14 -16 -14 -23 2 -11 26 -5 42 24 67 21 18 30 20 44
11 10 -6 18 -15 18 -21z m566 8 c-10 -10 -19 5 -10 18 6 11 8 11 12 0 2 -7 1
-15 -2 -18z m-2608 -3 c-7 -11 -16 -16 -21 -11 -12 12 0 31 19 31 12 0 12 -3
2 -20z m402 10 c0 -5 -2 -10 -4 -10 -3 0 -8 5 -11 10 -3 6 -1 10 4 10 6 0 11
-4 11 -10z m470 -11 c0 -5 -4 -9 -10 -9 -5 0 -10 7 -10 16 0 8 5 12 10 9 6 -3
10 -10 10 -16z m635 10 c4 -6 4 -13 0 -17 -3 -3 -10 0 -15 8 -8 13 -10 12 -10
-2 0 -9 4 -20 10 -23 13 -8 -11 -45 -30 -45 -12 1 -12 3 3 14 18 14 23 36 8
36 -5 0 -7 9 -4 20 6 21 28 27 38 9z m393 -14 c-3 -3 -9 2 -12 12 -6 14 -5 15
5 6 7 -7 10 -15 7 -18z m326 -16 c-8 -14 -21 -10 -28 7 -10 25 5 40 20 19 7
-10 11 -22 8 -26z m186 32 c0 -12 -20 -25 -27 -18 -7 7 6 27 18 27 5 0 9 -4 9
-9z m-2625 -11 c3 -5 -1 -10 -9 -10 -9 0 -16 5 -16 10 0 6 4 10 9 10 6 0 13
-4 16 -10z m85 -5 c0 -9 -6 -12 -15 -9 -8 4 -12 10 -9 15 8 14 24 10 24 -6z
m800 0 c0 -8 -4 -15 -10 -15 -5 0 -10 7 -10 15 0 8 5 15 10 15 6 0 10 -7 10
-15z m95 5 c3 -5 1 -10 -4 -10 -6 0 -11 5 -11 10 0 6 2 10 4 10 3 0 8 -4 11
-10z m515 -11 c0 -5 -4 -9 -10 -9 -5 0 -10 7 -10 16 0 8 5 12 10 9 6 -3 10
-10 10 -16z m120 11 c0 -5 -2 -10 -4 -10 -3 0 -8 5 -11 10 -3 6 -1 10 4 10 6
0 11 -4 11 -10z m192 -12 c-7 -7 -12 -8 -12 -2 0 6 3 14 7 17 3 4 9 5 12 2 2
-3 -1 -11 -7 -17z m268 2 c-24 -15 -36 -11 -14 4 10 8 21 12 24 10 2 -3 -2 -9
-10 -14z m253 -3 c-4 -7 -8 -15 -8 -19 0 -11 -15 -22 -15 -11 0 6 -10 13 -22
17 -19 4 -20 7 -9 18 11 10 14 10 18 1 5 -14 24 -18 22 -5 -3 16 2 23 11 17 6
-4 7 -12 3 -18z m255 12 c-2 -6 -8 -10 -13 -10 -5 0 -11 4 -13 10 -2 6 4 11
13 11 9 0 15 -5 13 -11z m276 -20 c3 -18 1 -38 -4 -45 -8 -8 -8 -14 0 -19 5
-3 10 1 10 10 0 8 7 18 15 21 8 4 15 12 15 20 0 8 5 14 11 14 6 0 8 -9 4 -20
-9 -27 23 -40 41 -16 12 17 13 16 24 -3 9 -18 8 -21 -10 -21 -11 0 -20 -7 -20
-15 0 -8 -4 -15 -9 -15 -5 0 -11 7 -15 15 -7 18 -25 19 -48 1 -15 -11 -15 -15
-2 -40 17 -35 17 -36 -1 -36 -8 0 -15 -5 -15 -11 0 -11 -24 -39 -34 -39 -3 0
3 16 14 36 20 35 19 61 -2 48 -7 -4 -8 -2 -4 4 3 6 -3 16 -14 22 -22 12 -27
45 -9 56 9 5 10 -1 5 -20 -5 -19 -3 -26 9 -26 8 0 15 6 15 13 0 6 3 22 6 33 5
19 2 21 -23 16 -15 -2 -33 -9 -40 -14 -7 -5 -13 -5 -17 0 -6 10 30 25 52 22 8
0 16 8 19 19 8 30 20 26 27 -10z m-2404 0 c0 -6 -4 -7 -10 -4 -5 3 -10 11 -10
16 0 6 5 7 10 4 6 -3 10 -11 10 -16z m970 17 c0 -11 -19 -15 -25 -6 -3 5 1 10
9 10 9 0 16 -2 16 -4z m440 -6 c0 -5 -4 -10 -10 -10 -5 0 -10 5 -10 10 0 6 5
10 10 10 6 0 10 -4 10 -10z m-1820 -10 c0 -5 -4 -10 -10 -10 -5 0 -10 5 -10
10 0 6 5 10 10 10 6 0 10 -4 10 -10z m1187 4 c-3 -3 -12 -4 -19 -1 -8 3 -5 6
6 6 11 1 17 -2 13 -5z m683 -4 c0 -5 -4 -10 -10 -10 -5 0 -10 5 -10 10 0 6 5
10 10 10 6 0 10 -4 10 -10z m783 3 c-7 -2 -13 -11 -13 -18 0 -21 -36 -60 -43
-47 -4 6 0 17 8 25 8 9 15 20 15 25 0 11 17 20 35 20 6 0 4 -2 -2 -5z m-1800
-28 c-3 -9 -8 -14 -10 -11 -3 3 -2 9 2 15 9 16 15 13 8 -4z m547 11 c0 -3 -4
-8 -10 -11 -5 -3 -10 -1 -10 4 0 6 5 11 10 11 6 0 10 -2 10 -4z m487 -18 c-3
-8 -6 -5 -6 6 -1 11 2 17 5 13 3 -3 4 -12 1 -19z m153 -3 c-12 -15 -30 -12
-30 5 0 8 31 19 39 13 2 -1 -2 -9 -9 -18z m385 15 c3 -5 1 -10 -4 -10 -6 0
-11 5 -11 10 0 6 2 10 4 10 3 0 8 -4 11 -10z m-1368 -22 c-3 -8 -6 -5 -6 6 -1
11 2 17 5 13 3 -3 4 -12 1 -19z m130 16 c-3 -3 -12 -4 -19 -1 -8 3 -5 6 6 6
11 1 17 -2 13 -5z m628 -4 c4 -6 10 -8 15 -5 5 3 11 1 15 -5 3 -5 0 -10 -7
-10 -18 0 -57 29 -41 30 6 0 15 -5 18 -10z m285 -4 c0 -23 -16 -27 -17 -5 -1
10 2 19 8 19 5 0 9 -6 9 -14z m130 4 c0 -5 -4 -10 -10 -10 -5 0 -10 5 -10 10
0 6 5 10 10 10 6 0 10 -4 10 -10z m83 -5 c-3 -9 -8 -14 -10 -11 -3 3 -2 9 2
15 9 16 15 13 8 -4z m81 6 c3 -4 -3 -16 -13 -25 -18 -16 -19 -16 -17 8 1 25
19 35 30 17z m501 -1 c3 -5 1 -10 -4 -10 -6 0 -11 5 -11 10 0 6 2 10 4 10 3 0
8 -4 11 -10z m-2798 -22 c-3 -8 -6 -5 -6 6 -1 11 2 17 5 13 3 -3 4 -12 1 -19z
m453 12 c0 -5 -4 -10 -10 -10 -5 0 -10 5 -10 10 0 6 5 10 10 10 6 0 10 -4 10
-10z m385 -9 c-3 -6 -11 -11 -17 -11 -6 0 -6 6 2 15 14 17 26 13 15 -4z m295
9 c0 -5 -5 -10 -11 -10 -5 0 -7 5 -4 10 3 6 8 10 11 10 2 0 4 -4 4 -10z m311
-19 c-13 -23 -41 -46 -41 -33 0 5 7 12 15 16 8 3 15 15 15 26 0 12 5 18 10 15
6 -4 7 -13 1 -24z m140 6 c-10 -9 -11 -8 -5 6 3 10 9 15 12 12 3 -3 0 -11 -7
-18z m249 13 c0 -5 -5 -10 -11 -10 -5 0 -7 5 -4 10 3 6 8 10 11 10 2 0 4 -4 4
-10z m415 0 c3 -5 1 -10 -4 -10 -6 0 -11 5 -11 10 0 6 2 10 4 10 3 0 8 -4 11
-10z m-1645 -10 c0 -5 -2 -10 -4 -10 -3 0 -8 5 -11 10 -3 6 -1 10 4 10 6 0 11
-4 11 -10z m730 0 c0 -5 -4 -10 -10 -10 -5 0 -10 5 -10 10 0 6 5 10 10 10 6 0
10 -4 10 -10z m310 0 c0 -5 -5 -10 -11 -10 -5 0 -7 5 -4 10 3 6 8 10 11 10 2
0 4 -4 4 -10z m33 -18 c-3 -12 -9 -22 -14 -22 -5 0 -3 11 3 25 13 30 20 28 11
-3z m695 17 c-2 -6 -8 -10 -13 -10 -5 0 -11 4 -13 10 -2 6 4 11 13 11 9 0 15
-5 13 -11z m44 -13 c-2 -9 2 -16 8 -16 5 0 10 -4 10 -10 0 -5 -11 -10 -25 -10
-27 0 -28 3 -19 38 7 26 31 24 26 -2z m53 14 c3 -5 -1 -10 -9 -10 -9 0 -16 5
-16 10 0 6 4 10 9 10 6 0 13 -4 16 -10z m153 1 c15 -1 16 -37 1 -47 -6 -3 -16
-1 -22 5 -8 8 -6 11 6 11 9 0 17 4 17 9 0 5 -11 8 -25 7 -15 0 -25 -7 -25 -16
0 -9 -10 -16 -25 -18 -17 -1 -25 3 -25 14 0 11 6 14 22 9 16 -6 20 -4 15 8 -7
20 -1 25 26 22 12 -1 28 -3 35 -4z m-2768 -11 c0 -5 -4 -10 -10 -10 -5 0 -10
5 -10 10 0 6 5 10 10 10 6 0 10 -4 10 -10z m400 6 c0 -3 -4 -8 -10 -11 -5 -3
-10 -1 -10 4 0 6 5 11 10 11 6 0 10 -2 10 -4z m130 -6 c0 -5 -2 -10 -4 -10 -3
0 -8 5 -11 10 -3 6 -1 10 4 10 6 0 11 -4 11 -10z m620 6 c0 -3 -4 -8 -10 -11
-5 -3 -10 -1 -10 4 0 6 5 11 10 11 6 0 10 -2 10 -4z m860 0 c0 -3 -4 -8 -10
-11 -5 -3 -10 -1 -10 4 0 6 5 11 10 11 6 0 10 -2 10 -4z m40 0 c0 -3 -4 -8
-10 -11 -5 -3 -10 -1 -10 4 0 6 5 11 10 11 6 0 10 -2 10 -4z m180 -6 c0 -5 -4
-10 -10 -10 -5 0 -10 5 -10 10 0 6 5 10 10 10 6 0 10 -4 10 -10z m240 -9 c-5
-11 -7 -27 -4 -35 3 -9 1 -16 -5 -16 -6 0 -11 7 -11 15 0 9 -6 12 -15 9 -8 -4
-15 -1 -15 5 0 6 7 11 15 11 8 0 15 7 15 15 0 8 7 15 15 15 12 0 13 -4 5 -19z
m-2510 -1 c0 -5 -4 -10 -10 -10 -5 0 -10 5 -10 10 0 6 5 10 10 10 6 0 10 -4
10 -10z m1140 0 c0 -5 -5 -10 -11 -10 -5 0 -7 5 -4 10 3 6 8 10 11 10 2 0 4
-4 4 -10z m657 -22 c-3 -7 -5 -2 -5 12 0 14 2 19 5 13 2 -7 2 -19 0 -25z m113
11 c0 -5 -4 -9 -10 -9 -5 0 -10 7 -10 16 0 8 5 12 10 9 6 -3 10 -10 10 -16z
m-1825 1 c-3 -5 -12 -10 -18 -10 -7 0 -6 4 3 10 19 12 23 12 15 0z m95 6 c0
-3 -4 -8 -10 -11 -5 -3 -10 -1 -10 4 0 6 5 11 10 11 6 0 10 -2 10 -4z m170 -6
c0 -5 -4 -10 -10 -10 -5 0 -10 5 -10 10 0 6 5 10 10 10 6 0 10 -4 10 -10z
m430 0 c0 -5 -5 -10 -11 -10 -5 0 -7 5 -4 10 3 6 8 10 11 10 2 0 4 -4 4 -10z
m127 -16 c-9 -9 -28 6 -21 18 4 6 10 6 17 -1 6 -6 8 -13 4 -17z m627 2 c-3 -9
-10 -16 -15 -16 -5 0 -4 9 3 20 14 22 21 20 12 -4z m221 14 c3 -5 1 -10 -4
-10 -6 0 -11 5 -11 10 0 6 2 10 4 10 3 0 8 -4 11 -10z m590 0 c4 -6 -5 -24
-19 -41 -17 -19 -26 -25 -26 -15 0 8 5 18 10 21 6 4 8 15 5 26 -7 20 18 28 30
9z m85 0 c0 -5 -2 -10 -4 -10 -3 0 -8 5 -11 10 -3 6 -1 10 4 10 6 0 11 -4 11
-10z m622 -5 c0 -5 -5 -11 -11 -13 -6 -2 -11 4 -11 13 0 9 5 15 11 13 6 -2 11
-8 11 -13z m-2792 -5 c0 -5 -4 -10 -9 -10 -6 0 -13 5 -16 10 -3 6 1 10 9 10 9
0 16 -4 16 -10z m142 -12 c-7 -7 -12 -8 -12 -2 0 14 12 26 19 19 2 -3 -1 -11
-7 -17z m338 11 c0 -16 -30 -43 -38 -34 -4 4 -1 10 6 12 6 3 12 11 12 19 0 8
5 14 10 14 6 0 10 -5 10 -11z m255 1 c3 -5 1 -10 -4 -10 -6 0 -11 5 -11 10 0
6 2 10 4 10 3 0 8 -4 11 -10z m45 -5 c0 -8 -4 -15 -10 -15 -5 0 -10 7 -10 15
0 8 5 15 10 15 6 0 10 -7 10 -15z m377 -17 c-3 -7 -5 -2 -5 12 0 14 2 19 5 13
2 -7 2 -19 0 -25z m53 28 c0 -3 -4 -8 -10 -11 -5 -3 -10 -1 -10 4 0 6 5 11 10
11 6 0 10 -2 10 -4z m174 -21 c-9 -14 -19 -23 -22 -20 -5 4 26 45 35 45 2 0
-4 -11 -13 -25z m411 16 c3 -5 1 -12 -5 -16 -5 -3 -10 1 -10 9 0 18 6 21 15 7z
m75 -6 c7 -8 9 -15 6 -15 -4 0 -14 7 -22 15 -9 8 -11 15 -6 15 5 0 15 -7 22
-15z m160 0 c0 -8 -2 -15 -4 -15 -2 0 -6 7 -10 15 -3 8 -1 15 4 15 6 0 10 -7
10 -15z m375 5 c-3 -5 -11 -10 -16 -10 -6 0 -7 5 -4 10 3 6 11 10 16 10 6 0 7
-4 4 -10z m288 3 c-7 -2 -13 -12 -13 -20 0 -9 -3 -14 -6 -10 -10 10 4 37 18
36 10 0 10 -2 1 -6z m67 -34 c0 -19 -5 -29 -15 -29 -16 0 -18 12 -9 47 8 31
24 19 24 -18z m63 17 c-10 -13 -22 -21 -28 -18 -5 3 -4 7 3 10 7 2 12 10 12
18 0 8 7 14 15 14 14 0 13 -3 -2 -24z m-2603 4 c0 -5 -4 -10 -10 -10 -5 0 -10
5 -10 10 0 6 5 10 10 10 6 0 10 -4 10 -10z m90 0 c0 -5 -4 -10 -10 -10 -5 0
-10 5 -10 10 0 6 5 10 10 10 6 0 10 -4 10 -10z m50 -22 c0 -5 -4 -8 -10 -8 -5
0 -10 10 -10 23 0 18 2 19 10 7 5 -8 10 -18 10 -22z m1565 22 c-3 -5 -11 -10
-16 -10 -6 0 -7 5 -4 10 3 6 11 10 16 10 6 0 7 -4 4 -10z m64 -11 c3 -11 1
-12 -11 -2 -8 7 -19 9 -23 5 -5 -4 -5 -1 -1 6 9 16 28 11 35 -9z m-565 -5 c3
-8 2 -12 -4 -9 -6 3 -10 10 -10 16 0 14 7 11 14 -7z m-1664 2 c0 -3 -4 -8 -10
-11 -5 -3 -10 -1 -10 4 0 6 5 11 10 11 6 0 10 -2 10 -4z m60 -5 c0 -17 -18
-21 -24 -6 -3 9 0 15 9 15 8 0 15 -4 15 -9z m1847 -13 c-3 -8 -6 -5 -6 6 -1
11 2 17 5 13 3 -3 4 -12 1 -19z m733 7 c25 -14 25 -14 3 -15 -13 0 -23 5 -23
10 0 19 -36 -12 -49 -41 -7 -16 -17 -29 -22 -29 -11 0 8 35 35 68 23 26 23 26
56 7z m73 -5 c-3 -11 -1 -20 5 -20 6 0 14 9 17 20 6 19 25 28 25 12 0 -17 -50
-56 -60 -46 -10 10 -2 54 10 54 5 0 6 -9 3 -20z m237 10 c0 -5 -4 -10 -10 -10
-5 0 -10 5 -10 10 0 6 5 10 10 10 6 0 10 -4 10 -10z m-1780 -10 c0 -5 -5 -10
-11 -10 -5 0 -7 5 -4 10 3 6 8 10 11 10 2 0 4 -4 4 -10z m635 0 c-3 -5 -12
-10 -18 -10 -7 0 -6 4 3 10 19 12 23 12 15 0z m45 0 c0 -5 -5 -10 -11 -10 -5
0 -7 5 -4 10 3 6 8 10 11 10 2 0 4 -4 4 -10z m170 0 c0 -5 -10 -10 -22 -10
-19 0 -20 2 -8 10 19 13 30 13 30 0z m50 1 c0 -6 -4 -13 -10 -16 -5 -3 -10 1
-10 9 0 9 5 16 10 16 6 0 10 -4 10 -9z m80 -1 c0 -5 -4 -10 -10 -10 -5 0 -10
5 -10 10 0 6 5 10 10 10 6 0 10 -4 10 -10z m55 -15 c0 -10 -7 -20 -15 -22 -13
-4 -13 -3 -1 5 13 9 13 13 0 28 -12 15 -12 17 1 12 8 -2 15 -13 15 -23z m55
15 c0 -5 -7 -10 -16 -10 -8 0 -12 5 -9 10 3 6 10 10 16 10 5 0 9 -4 9 -10z
m90 0 c0 -5 -4 -10 -10 -10 -5 0 -10 5 -10 10 0 6 5 10 10 10 6 0 10 -4 10
-10z m110 0 c0 -5 -4 -10 -10 -10 -5 0 -10 5 -10 10 0 6 5 10 10 10 6 0 10 -4
10 -10z m90 1 c0 -6 -4 -13 -10 -16 -5 -3 -10 1 -10 9 0 9 5 16 10 16 6 0 10
-4 10 -9z m-2250 -11 c-19 -13 -30 -13 -30 0 0 6 10 10 23 10 18 0 19 -2 7
-10z m600 -4 c0 -8 -4 -18 -10 -21 -5 -3 -10 3 -10 14 0 12 5 21 10 21 6 0 10
-6 10 -14z m1500 -6 c0 -11 -4 -20 -10 -20 -5 0 -10 -7 -10 -15 0 -8 -4 -15
-10 -15 -13 0 -13 17 0 25 6 4 8 15 5 26 -4 13 -2 19 9 19 9 0 16 -9 16 -20z
m783 1 c3 -14 1 -18 -9 -14 -8 3 -14 -1 -14 -8 0 -11 -2 -11 -10 1 -5 9 -5 19
2 27 15 18 25 16 31 -6z m152 9 c-3 -5 -11 -10 -16 -10 -6 0 -7 5 -4 10 3 6
11 10 16 10 6 0 7 -4 4 -10z m-3196 -17 c-7 -10 -15 -20 -16 -22 -2 -2 -3 5
-3 17 0 14 6 22 16 22 14 0 15 -3 3 -17z m631 13 c0 -3 -4 -8 -10 -11 -5 -3
-10 -1 -10 4 0 6 5 11 10 11 6 0 10 -2 10 -4z m610 -6 c0 -5 -5 -10 -11 -10
-5 0 -7 5 -4 10 3 6 8 10 11 10 2 0 4 -4 4 -10z m1296 -17 c-10 -10 -19 5 -10
18 6 11 8 11 12 0 2 -7 1 -15 -2 -18z m118 18 c3 -5 -3 -11 -14 -14 -13 -3
-20 0 -20 9 0 15 26 19 34 5z m56 -1 c0 -5 -4 -10 -9 -10 -5 0 -15 -16 -21
-35 -6 -19 -16 -35 -20 -35 -5 0 -7 7 -4 15 4 9 0 15 -10 15 -9 0 -16 5 -16
10 0 6 6 10 13 9 26 -3 35 2 40 21 5 20 27 28 27 10z m110 0 c0 -5 -7 -10 -15
-10 -8 0 -15 5 -15 10 0 6 7 10 15 10 8 0 15 -4 15 -10z m-2350 -10 c0 -5 -5
-10 -11 -10 -5 0 -7 5 -4 10 3 6 8 10 11 10 2 0 4 -4 4 -10z m35 0 c3 -5 1
-10 -4 -10 -6 0 -11 5 -11 10 0 6 2 10 4 10 3 0 8 -4 11 -10z m395 0 c0 -5 -5
-10 -11 -10 -5 0 -7 5 -4 10 3 6 8 10 11 10 2 0 4 -4 4 -10z m80 0 c0 -5 -4
-10 -10 -10 -5 0 -10 5 -10 10 0 6 5 10 10 10 6 0 10 -4 10 -10z m55 0 c3 -5
-1 -10 -9 -10 -8 0 -18 5 -21 10 -3 6 1 10 9 10 8 0 18 -4 21 -10z m735 -6 c0
-2 -9 -4 -20 -4 -11 0 -20 4 -20 9 0 5 9 7 20 4 11 -3 20 -7 20 -9z m585 7 c3
-6 -3 -9 -14 -8 -11 0 -17 5 -15 9 7 11 22 10 29 -1z m560 -1 c-3 -5 -12 -7
-20 -3 -10 3 -15 -1 -15 -12 0 -9 -5 -13 -10 -10 -16 10 8 35 32 35 10 0 17
-4 13 -10z m-1245 -10 c0 -5 -5 -10 -11 -10 -5 0 -7 5 -4 10 3 6 8 10 11 10 2
0 4 -4 4 -10z m450 6 c0 -11 -19 -15 -25 -6 -3 5 1 10 9 10 9 0 16 -2 16 -4z
m54 -21 c-21 -16 -34 -19 -34 -7 0 8 42 30 49 25 3 -2 -4 -10 -15 -18z m306
21 c0 -11 -19 -15 -25 -6 -3 5 1 10 9 10 9 0 16 -2 16 -4z m-2340 -16 c0 -5
-2 -10 -4 -10 -3 0 -8 5 -11 10 -3 6 -1 10 4 10 6 0 11 -4 11 -10z m1140 0 c0
-5 -2 -10 -4 -10 -3 0 -8 5 -11 10 -3 6 -1 10 4 10 6 0 11 -4 11 -10z m150 6
c0 -3 -4 -8 -10 -11 -5 -3 -10 -1 -10 4 0 6 5 11 10 11 6 0 10 -2 10 -4z m165
-6 c3 -5 1 -10 -4 -10 -6 0 -11 5 -11 10 0 6 2 10 4 10 3 0 8 -4 11 -10z m405
-12 c0 -16 -3 -19 -11 -11 -6 6 -8 16 -5 22 11 17 16 13 16 -11z m774 1 c-3
-5 -10 -7 -15 -4 -5 4 -9 -3 -9 -14 0 -12 -4 -21 -10 -21 -14 0 -12 12 6 38
14 21 41 22 28 1z m-2697 -21 c-3 -7 -5 -2 -5 12 0 14 2 19 5 13 2 -7 2 -19 0
-25z m544 14 c-7 -2 -18 1 -23 6 -8 8 -4 9 13 5 13 -4 18 -8 10 -11z m319 8
c0 -5 -7 -10 -16 -10 -8 0 -12 5 -9 10 3 6 10 10 16 10 5 0 9 -4 9 -10z m760
-12 c0 -18 -2 -20 -9 -8 -6 8 -7 18 -5 22 9 14 14 9 14 -14z m67 0 c-3 -8 -6
-5 -6 6 -1 11 2 17 5 13 3 -3 4 -12 1 -19z m163 12 c0 -5 -4 -10 -10 -10 -5 0
-10 -8 -11 -17 0 -11 -2 -13 -6 -5 -3 7 -2 19 1 27 6 17 26 20 26 5z m404 -6
c18 -18 21 -34 6 -34 -5 0 -10 7 -10 15 0 8 -4 15 -10 15 -5 0 -10 -8 -10 -17
0 -13 -3 -14 -12 -5 -8 8 -8 15 2 27 15 19 15 19 34 -1z m236 6 c0 -5 -4 -10
-10 -10 -5 0 -10 5 -10 10 0 6 5 10 10 10 6 0 10 -4 10 -10z m280 -21 c-12
-21 -80 -28 -80 -8 0 6 7 8 16 5 24 -9 54 3 54 20 0 8 5 12 10 9 7 -4 7 -13 0
-26z m140 21 c0 -5 -5 -10 -11 -10 -5 0 -7 5 -4 10 3 6 8 10 11 10 2 0 4 -4 4
-10z m-2180 -10 c0 -5 -4 -10 -10 -10 -5 0 -10 5 -10 10 0 6 5 10 10 10 6 0
10 -4 10 -10z m542 -22 c-9 -9 -12 -7 -12 12 0 19 3 21 12 12 9 -9 9 -15 0
-24z m118 22 c0 -5 -5 -10 -11 -10 -5 0 -7 5 -4 10 3 6 8 10 11 10 2 0 4 -4 4
-10z m77 4 c-3 -3 -12 -4 -19 -1 -8 3 -5 6 6 6 11 1 17 -2 13 -5z m273 -19 c0
-15 -6 -25 -14 -25 -11 0 -12 5 -3 25 15 31 17 31 17 0z m262 16 c-8 -4 -13
-14 -12 -22 4 -28 -1 -64 -7 -49 -4 8 -13 21 -22 28 -14 12 -14 13 2 8 12 -4
17 0 17 13 0 20 8 31 24 31 6 0 5 -4 -2 -9z m188 -5 c0 -8 -7 -16 -15 -20 -12
-4 -13 -2 -2 14 14 24 17 25 17 6z m198 -6 c7 -11 8 -20 2 -20 -5 0 -14 9 -20
20 -6 11 -7 20 -3 20 5 0 14 -9 21 -20z m45 6 c3 -8 0 -22 -7 -31 -11 -16 -13
-14 -13 14 0 32 11 41 20 17z m-1403 -6 c0 -5 -5 -10 -11 -10 -5 0 -7 5 -4 10
3 6 8 10 11 10 2 0 4 -4 4 -10z m1090 6 c0 -2 -7 -6 -15 -10 -8 -3 -15 -1 -15
4 0 6 7 10 15 10 8 0 15 -2 15 -4z m-1980 -10 c0 -3 -4 -8 -10 -11 -5 -3 -10
-1 -10 4 0 6 5 11 10 11 6 0 10 -2 10 -4z m400 -6 c0 -5 -5 -10 -11 -10 -5 0
-7 5 -4 10 3 6 8 10 11 10 2 0 4 -4 4 -10z m410 0 c0 -5 -4 -10 -10 -10 -5 0
-10 5 -10 10 0 6 5 10 10 10 6 0 10 -4 10 -10z m1120 0 c0 -5 -4 -10 -10 -10
-5 0 -10 5 -10 10 0 6 5 10 10 10 6 0 10 -4 10 -10z m250 -11 c0 -6 -4 -7 -10
-4 -5 3 -10 11 -10 16 0 6 5 7 10 4 6 -3 10 -11 10 -16z m28 8 c-1 -2 3 -11
11 -20 12 -15 11 -17 -6 -17 -16 0 -19 5 -15 25 2 14 7 24 9 21 3 -2 3 -6 1
-9z m127 -18 c-4 -12 -2 -19 6 -19 7 0 10 -2 7 -5 -3 -3 -14 -2 -25 2 -17 6
-19 13 -12 31 10 28 33 19 24 -9z m155 16 c0 -8 -4 -15 -10 -15 -5 0 -10 7
-10 15 0 8 5 15 10 15 6 0 10 -7 10 -15z m310 -34 c0 -12 -3 -12 -12 -3 -14
14 -28 15 -46 4 -14 -9 -6 -42 10 -42 5 0 6 5 3 10 -3 6 2 10 12 10 15 -1 13
-5 -9 -23 -16 -13 -28 -29 -28 -36 0 -7 -6 -11 -14 -8 -8 3 -17 1 -19 -6 -2
-7 -8 -9 -12 -5 -4 4 6 19 21 34 19 17 25 28 17 31 -22 8 -15 43 8 43 16 0 19
4 14 21 -7 21 -7 21 24 3 17 -10 31 -25 31 -33z m-1350 29 c0 -5 -2 -10 -4
-10 -3 0 -8 5 -11 10 -3 6 -1 10 4 10 6 0 11 -4 11 -10z m177 -12 c-3 -8 -6
-5 -6 6 -1 11 2 17 5 13 3 -3 4 -12 1 -19z m138 12 c3 -5 1 -10 -4 -10 -6 0
-11 5 -11 10 0 6 2 10 4 10 3 0 8 -4 11 -10z m235 6 c0 -3 -4 -8 -10 -11 -5
-3 -10 -1 -10 4 0 6 5 11 10 11 6 0 10 -2 10 -4z m420 -16 c0 -11 -4 -20 -10
-20 -5 0 -10 9 -10 20 0 11 5 20 10 20 6 0 10 -9 10 -20z m-1643 -10 c-1 -11
-5 -20 -9 -20 -4 0 -8 9 -8 20 0 11 4 20 9 20 6 0 9 -9 8 -20z m1293 11 c0 -5
-7 -12 -16 -15 -14 -5 -15 -4 -4 9 14 17 20 19 20 6z m990 -21 c0 -35 -15 -40
-25 -9 -5 14 -2 25 6 30 19 12 19 12 19 -21z m-2765 -1 c8 -24 -18 -59 -29
-40 -4 6 -2 11 4 11 8 0 10 9 6 25 -8 30 10 34 19 4z m1723 9 c-3 -7 1 -19 9
-26 7 -8 10 -18 7 -23 -8 -13 -33 20 -34 44 0 9 5 17 11 17 6 0 9 -6 7 -12z
m537 2 c3 -5 -1 -10 -9 -10 -8 0 -16 -10 -19 -22 -4 -23 -4 -23 -14 2 -9 20
-7 26 6 32 23 10 29 9 36 -2z m-2632 -20 c-3 -11 -7 -20 -9 -20 -2 0 -4 9 -4
20 0 11 4 20 9 20 5 0 7 -9 4 -20z m34 -2 c-3 -8 -6 -5 -6 6 -1 11 2 17 5 13
3 -3 4 -12 1 -19z m1133 12 c0 -5 -2 -10 -4 -10 -3 0 -8 5 -11 10 -3 6 -1 10
4 10 6 0 11 -4 11 -10z m470 6 c0 -3 -4 -8 -10 -11 -5 -3 -10 -1 -10 4 0 6 5
11 10 11 6 0 10 -2 10 -4z m180 -6 c0 -5 -4 -10 -10 -10 -5 0 -10 5 -10 10 0
6 5 10 10 10 6 0 10 -4 10 -10z m60 1 c0 -6 -4 -13 -10 -16 -5 -3 -10 1 -10 9
0 9 5 16 10 16 6 0 10 -4 10 -9z m303 2 c11 -11 -14 -33 -37 -32 -20 0 -20 1
2 10 13 5 20 13 17 19 -7 11 8 14 18 3z m-2353 -13 c0 -5 -4 -10 -10 -10 -5 0
-10 5 -10 10 0 6 5 10 10 10 6 0 10 -4 10 -10z m122 -20 c-11 -11 -23 -16 -27
-11 -3 5 4 12 15 16 11 3 20 11 20 17 0 6 3 8 7 5 3 -4 -3 -16 -15 -27z m128
20 c0 -5 -4 -10 -10 -10 -5 0 -10 5 -10 10 0 6 5 10 10 10 6 0 10 -4 10 -10z
m500 6 c0 -3 -4 -8 -10 -11 -5 -3 -10 -1 -10 4 0 6 5 11 10 11 6 0 10 -2 10
-4z m40 -5 c0 -6 -4 -13 -10 -16 -5 -3 -10 1 -10 9 0 9 5 16 10 16 6 0 10 -4
10 -9z m794 -6 c-25 -19 -40 -19 -24 0 7 8 20 15 28 15 13 0 12 -3 -4 -15z
m-1184 -5 c0 -5 -5 -10 -11 -10 -5 0 -7 5 -4 10 3 6 8 10 11 10 2 0 4 -4 4
-10z m710 0 c0 -5 -5 -10 -11 -10 -5 0 -7 5 -4 10 3 6 8 10 11 10 2 0 4 -4 4
-10z m70 0 c0 -5 -5 -10 -11 -10 -5 0 -7 5 -4 10 3 6 8 10 11 10 2 0 4 -4 4
-10z m765 0 c3 -5 1 -10 -4 -10 -6 0 -11 5 -11 10 0 6 2 10 4 10 3 0 8 -4 11
-10z m245 0 c0 -5 -7 -10 -15 -10 -8 0 -15 5 -15 10 0 6 7 10 15 10 8 0 15 -4
15 -10z m235 -9 c-3 -6 -11 -8 -17 -5 -6 4 -5 9 3 15 16 10 23 4 14 -10z m70
9 c3 -5 1 -10 -4 -10 -6 0 -11 5 -11 10 0 6 2 10 4 10 3 0 8 -4 11 -10z m134
-40 c-1 -13 -1 -13 -6 0 -3 8 -10 18 -16 21 -5 4 -6 13 -2 20 6 9 10 8 16 -7
4 -10 8 -26 8 -34z m41 41 c0 -12 -20 -25 -27 -18 -7 7 6 27 18 27 5 0 9 -4 9
-9z m610 -2 c0 -5 -7 -9 -16 -9 -8 0 -12 -5 -9 -10 4 -6 15 -8 25 -5 10 3 21
1 25 -5 5 -8 -3 -11 -26 -8 -32 3 -34 1 -34 -27 0 -24 -5 -31 -25 -33 -24 -3
-25 -3 -5 12 18 14 18 15 3 16 -10 0 -18 5 -18 11 0 6 7 8 15 5 9 -3 15 -1 14
7 -5 38 2 52 26 53 14 1 25 -2 25 -7z m-1985 -9 c-27 -12 -35 -12 -35 0 0 6
12 10 28 9 24 0 25 -1 7 -9z m325 -5 c0 -8 -7 -15 -15 -15 -16 0 -20 12 -8 23
11 12 23 8 23 -8z m842 -47 c-2 -27 -8 -45 -13 -42 -5 3 -13 -5 -17 -17 -5
-12 -12 -18 -15 -12 -3 5 3 26 13 46 11 20 20 49 20 64 0 15 4 23 8 18 5 -6 7
-31 4 -57z m373 38 c-8 -13 -13 -30 -10 -38 4 -9 0 -18 -8 -21 -19 -7 -10 54
11 71 23 18 24 15 7 -12z m85 14 c0 -5 -4 -10 -9 -10 -6 0 -13 5 -16 10 -3 6
1 10 9 10 9 0 16 -4 16 -10z m14 -35 c-26 -18 -30 -11 -7 12 10 10 20 15 22
10 1 -4 -5 -14 -15 -22z m266 19 c0 -8 -5 -12 -10 -9 -6 4 -8 11 -5 16 9 14
15 11 15 -7z m-2430 -4 c0 -5 -4 -10 -10 -10 -5 0 -10 5 -10 10 0 6 5 10 10
10 6 0 10 -4 10 -10z m60 0 c0 -5 -2 -10 -4 -10 -3 0 -8 5 -11 10 -3 6 -1 10
4 10 6 0 11 -4 11 -10z m1072 -12 c-7 -7 -12 -8 -12 -2 0 6 3 14 7 17 3 4 9 5
12 2 2 -3 -1 -11 -7 -17z m788 11 c0 -7 9 -9 21 -6 20 5 20 5 3 -14 -13 -14
-20 -16 -31 -8 -15 13 -18 39 -3 39 6 0 10 -5 10 -11z m189 -9 c-10 -7 -10
-11 1 -25 10 -12 10 -19 2 -27 -9 -9 -12 -6 -12 11 0 16 -4 21 -15 17 -21 -8
-19 21 2 33 21 11 41 2 22 -9z m-2725 1 c3 -5 -1 -11 -9 -14 -9 -4 -12 -1 -8
9 6 16 10 17 17 5z m71 -1 c-3 -5 -11 -10 -16 -10 -6 0 -7 5 -4 10 3 6 11 10
16 10 6 0 7 -4 4 -10z m1152 -12 c-3 -8 -6 -5 -6 6 -1 11 2 17 5 13 3 -3 4
-12 1 -19z m53 8 c0 -8 -7 -16 -15 -20 -12 -4 -13 -2 -2 14 14 24 17 25 17 6z
m330 10 c0 -2 -7 -6 -15 -10 -8 -3 -15 -1 -15 4 0 6 7 10 15 10 8 0 15 -2 15
-4z m785 -6 c-3 -5 -12 -10 -18 -10 -7 0 -6 4 3 10 19 12 23 12 15 0z m43 -12
c-3 -23 -21 -48 -33 -48 -3 0 -3 6 2 13 4 6 8 14 9 17 2 13 17 40 21 40 2 0 3
-10 1 -22z m-1528 2 c0 -5 -4 -10 -10 -10 -5 0 -10 5 -10 10 0 6 5 10 10 10 6
0 10 -4 10 -10z m1365 -10 c-10 -11 -20 -18 -23 -16 -5 6 21 35 32 36 5 0 1
-9 -9 -20z m-1945 0 c0 -5 -7 -10 -15 -10 -8 0 -15 5 -15 10 0 6 7 10 15 10 8
0 15 -4 15 -10z m72 -12 c-7 -7 -12 -8 -12 -2 0 14 12 26 19 19 2 -3 -1 -11
-7 -17z m64 -5 c-10 -10 -19 5 -10 18 6 11 8 11 12 0 2 -7 1 -15 -2 -18z m94
17 c0 -5 -5 -10 -11 -10 -5 0 -7 5 -4 10 3 6 8 10 11 10 2 0 4 -4 4 -10z m300
0 c0 -5 -5 -10 -11 -10 -5 0 -7 5 -4 10 3 6 8 10 11 10 2 0 4 -4 4 -10z m630
-5 c0 -8 -4 -15 -10 -15 -5 0 -7 7 -4 15 4 8 8 15 10 15 2 0 4 -7 4 -15z m140
5 c0 -5 -5 -10 -11 -10 -5 0 -7 5 -4 10 3 6 8 10 11 10 2 0 4 -4 4 -10z m97
-12 c-3 -8 -6 -5 -6 6 -1 11 2 17 5 13 3 -3 4 -12 1 -19z m163 12 c0 -5 -5
-10 -11 -10 -5 0 -7 5 -4 10 3 6 8 10 11 10 2 0 4 -4 4 -10z m60 0 c0 -5 -7
-10 -15 -10 -8 0 -15 5 -15 10 0 6 7 10 15 10 8 0 15 -4 15 -10z m175 0 c3 -5
-1 -10 -9 -10 -9 0 -16 5 -16 10 0 6 4 10 9 10 6 0 13 -4 16 -10z m1036 -7 c7
-7 1 -10 -20 -9 -17 1 -31 6 -31 13 0 15 35 12 51 -4z m-3247 -25 c-9 -14 -23
2 -17 18 4 12 8 13 14 3 4 -7 5 -17 3 -21z m126 23 c0 -5 -7 -14 -15 -21 -12
-10 -15 -10 -15 2 0 8 3 18 7 21 9 10 23 9 23 -2z m595 -1 c3 -5 1 -10 -4 -10
-6 0 -11 5 -11 10 0 6 2 10 4 10 3 0 8 -4 11 -10z m882 -12 c-3 -8 -6 -5 -6 6
-1 11 2 17 5 13 3 -3 4 -12 1 -19z m688 12 c3 -5 2 -10 -4 -10 -5 0 -13 5 -16
10 -3 6 -2 10 4 10 5 0 13 -4 16 -10z m305 -11 c0 -11 -4 -17 -10 -14 -5 3
-10 13 -10 21 0 8 5 14 10 14 6 0 10 -9 10 -21z m120 6 c0 -8 -4 -15 -10 -15
-5 0 -10 7 -10 15 0 8 5 15 10 15 6 0 10 -7 10 -15z m230 11 c0 -3 -4 -8 -10
-11 -5 -3 -10 -1 -10 4 0 6 5 11 10 11 6 0 10 -2 10 -4z m-2772 -26 c-13 -20
-38 -35 -38 -23 0 10 32 43 42 43 4 0 3 -9 -4 -20z m592 10 c0 -5 -5 -10 -11
-10 -5 0 -7 5 -4 10 3 6 8 10 11 10 2 0 4 -4 4 -10z m267 4 c-3 -3 -12 -4 -19
-1 -8 3 -5 6 6 6 11 1 17 -2 13 -5z m1443 -4 c0 -5 -2 -10 -4 -10 -3 0 -8 5
-11 10 -3 6 -1 10 4 10 6 0 11 -4 11 -10z m-2180 -10 c0 -5 -4 -10 -10 -10 -5
0 -10 5 -10 10 0 6 5 10 10 10 6 0 10 -4 10 -10z m1590 0 c0 -5 -2 -10 -4 -10
-3 0 -8 5 -11 10 -3 6 -1 10 4 10 6 0 11 -4 11 -10z m305 0 c3 -5 1 -10 -4
-10 -6 0 -11 5 -11 10 0 6 2 10 4 10 3 0 8 -4 11 -10z m252 -12 c-3 -8 -6 -5
-6 6 -1 11 2 17 5 13 3 -3 4 -12 1 -19z m201 10 c-3 -7 -13 -15 -24 -17 -16
-3 -17 -1 -5 13 16 19 34 21 29 4z m206 -3 c3 -8 1 -15 -4 -15 -6 0 -10 7 -10
15 0 8 2 15 4 15 2 0 6 -7 10 -15z m181 5 c3 -5 -2 -10 -12 -10 -11 0 -24 -5
-31 -12 -9 -9 -12 -8 -12 4 0 14 12 22 42 27 4 0 10 -3 13 -9z m27 -12 c-7 -7
-12 -8 -12 -2 0 6 3 14 7 17 3 4 9 5 12 2 2 -3 -1 -11 -7 -17z m42 7 c-4 -8
-11 -12 -16 -9 -6 4 -5 10 3 15 19 12 19 11 13 -6z m-1864 1 c0 -3 -4 -8 -10
-11 -5 -3 -10 -1 -10 4 0 6 5 11 10 11 6 0 10 -2 10 -4z m620 -6 c0 -5 -4 -10
-9 -10 -6 0 -13 5 -16 10 -3 6 1 10 9 10 9 0 16 -4 16 -10z m830 0 c0 -5 -2
-10 -4 -10 -3 0 -8 5 -11 10 -3 6 -1 10 4 10 6 0 11 -4 11 -10z m231 -29 c-7
-12 -19 -21 -28 -21 -14 0 -13 4 5 23 12 13 21 26 19 29 -2 3 0 2 5 -2 6 -5 5
-16 -1 -29z m309 29 c0 -5 -7 -10 -15 -10 -8 0 -15 5 -15 10 0 6 7 10 15 10 8
0 15 -4 15 -10z m-693 -20 c-1 -12 -5 -16 -10 -11 -5 5 -6 14 -3 20 11 16 15
13 13 -9z m233 -16 c0 -8 -5 -14 -12 -14 -6 0 -8 3 -5 6 3 4 1 16 -5 28 -10
19 -10 20 5 7 10 -7 17 -20 17 -27z m420 6 c0 -11 -4 -20 -9 -20 -5 0 -11 9
-14 20 -3 13 0 20 9 20 8 0 14 -9 14 -20z m-2920 -11 c-7 -11 -14 -18 -17 -15
-3 3 0 12 7 21 18 21 23 19 10 -6z m1800 6 c0 -8 -2 -15 -4 -15 -2 0 -6 7 -10
15 -3 8 -1 15 4 15 6 0 10 -7 10 -15z m508 1 c-7 -8 -17 -12 -22 -9 -4 3 -2 9
5 14 22 13 31 11 17 -5z m89 1 c0 -15 -32 -16 -44 -2 -5 4 -3 5 4 1 6 -3 14
-2 18 4 9 14 22 12 22 -3z m365 -2 c0 -5 -5 -11 -11 -13 -6 -2 -11 4 -11 13 0
9 5 15 11 13 6 -2 11 -8 11 -13z m39 -8 c-10 -9 -11 -8 -5 6 3 10 9 15 12 12
3 -3 0 -11 -7 -18z m269 8 c0 -8 -4 -15 -10 -15 -5 0 -10 7 -10 15 0 8 5 15
10 15 6 0 10 -7 10 -15z m-1510 -16 c0 -6 -4 -7 -10 -4 -5 3 -10 11 -10 16 0
6 5 7 10 4 6 -3 10 -11 10 -16z m475 11 c-3 -5 -14 -10 -23 -9 -14 0 -13 2 3
9 27 11 27 11 20 0z m206 -8 c-7 -2 -18 1 -23 6 -8 8 -4 9 13 5 13 -4 18 -8
10 -11z m299 8 c0 -5 -2 -10 -4 -10 -3 0 -8 5 -11 10 -3 6 -1 10 4 10 6 0 11
-4 11 -10z m346 -2 c5 -8 2 -9 -9 -5 -9 3 -19 2 -22 -4 -4 -5 -11 -6 -18 -2
-7 4 -4 9 9 14 27 11 32 10 40 -3z m-2666 -8 c0 -5 -2 -10 -4 -10 -3 0 -8 5
-11 10 -3 6 -1 10 4 10 6 0 11 -4 11 -10z m1555 0 c-3 -5 -11 -10 -16 -10 -6
0 -7 5 -4 10 3 6 11 10 16 10 6 0 7 -4 4 -10z m300 0 c-3 -5 -10 -10 -16 -10
-5 0 -9 5 -9 10 0 6 7 10 16 10 8 0 12 -4 9 -10z m65 6 c0 -3 -4 -8 -10 -11
-5 -3 -10 -1 -10 4 0 6 5 11 10 11 6 0 10 -2 10 -4z m2510 -76 c0 -5 -4 -10
-10 -10 -5 0 -10 5 -10 10 0 6 5 10 10 10 6 0 10 -4 10 -10z m14345 -59 c3 -5
1 -12 -5 -16 -5 -3 -10 1 -10 9 0 18 6 21 15 7z m-728 -33 c-3 -8 -6 -5 -6 6
-1 11 2 17 5 13 3 -3 4 -12 1 -19z m-17677 -798 c0 -5 -4 -10 -10 -10 -5 0
-10 5 -10 10 0 6 5 10 10 10 6 0 10 -4 10 -10z m1240 -114 c0 -3 -4 -8 -10
-11 -5 -3 -10 -1 -10 4 0 6 5 11 10 11 6 0 10 -2 10 -4z m16090 -210 c0 -3 -4
-8 -10 -11 -5 -3 -10 -1 -10 4 0 6 5 11 10 11 6 0 10 -2 10 -4z m-270 -16 c0
-5 -4 -10 -10 -10 -5 0 -10 5 -10 10 0 6 5 10 10 10 6 0 10 -4 10 -10z m-690
-110 c0 -5 -4 -10 -10 -10 -5 0 -10 5 -10 10 0 6 5 10 10 10 6 0 10 -4 10 -10z
m-4130 -545 c0 -8 -4 -15 -10 -15 -5 0 -7 7 -4 15 4 8 8 15 10 15 2 0 4 -7 4
-15z m3110 -55 c0 -5 -4 -10 -10 -10 -5 0 -10 5 -10 10 0 6 5 10 10 10 6 0 10
-4 10 -10z"/>
<path d="M13200 17072 c0 -7 13 -18 28 -26 37 -19 172 -163 216 -229 99 -150
139 -278 138 -437 -2 -181 -46 -319 -148 -461 -65 -90 -217 -239 -244 -239
-23 0 -45 -26 -31 -35 6 -3 62 -6 123 -6 221 0 370 46 573 176 127 82 234 219
281 360 22 67 26 98 26 185 -1 130 -21 202 -92 321 -63 104 -103 146 -205 214
-115 76 -193 109 -335 143 -135 33 -330 53 -330 34z"/>
<path d="M14220 11937 c0 -3 36 -25 80 -48 273 -146 510 -416 589 -672 39
-129 46 -257 20 -405 -27 -163 -144 -401 -270 -551 -68 -80 -200 -199 -264
-236 -25 -15 -45 -31 -45 -36 0 -21 379 -6 555 22 186 30 428 130 570 236 82
61 228 211 254 261 8 15 25 40 37 55 13 16 27 41 30 55 4 15 13 40 22 56 27
55 52 160 58 246 18 246 -80 462 -288 637 -79 66 -217 163 -233 163 -4 0 -37
15 -74 33 -122 62 -408 143 -571 162 -114 13 -470 30 -470 22z"/>
<path d="M4104 3558 c3 -12 1 -15 -10 -11 -7 3 -14 0 -14 -6 0 -6 -7 -11 -16
-11 -8 0 -12 -4 -9 -10 3 -5 20 -7 38 -5 l32 5 -27 -12 c-31 -13 -43 -44 -21
-57 12 -6 13 -10 3 -16 -8 -5 -18 -2 -25 8 -9 12 -14 14 -23 5 -9 -9 -12 -3
-12 25 0 20 5 37 11 37 6 0 9 -7 5 -15 -3 -8 -1 -15 3 -15 13 0 21 29 10 35
-5 4 -7 10 -5 14 9 15 -10 30 -32 24 -22 -5 -32 -33 -12 -33 6 0 10 5 10 12 0
6 3 8 6 5 4 -4 1 -13 -5 -21 -7 -8 -10 -19 -8 -24 3 -4 2 -14 -4 -22 -6 -11
-9 -8 -9 13 0 15 -4 27 -8 27 -15 0 -32 -24 -32 -46 0 -12 -6 -24 -12 -27 -7
-2 -10 -8 -6 -12 12 -12 38 22 32 42 -5 17 -5 17 10 -1 11 -13 12 -25 5 -43
-11 -30 -3 -48 16 -33 8 7 23 9 33 6 11 -4 24 0 32 9 7 8 19 15 26 15 8 0 14
5 14 11 0 5 5 7 10 4 6 -3 10 -1 10 4 0 6 -7 11 -15 11 -25 0 -17 23 17 53 18
16 28 26 21 23 -7 -4 -19 5 -28 21 -9 15 -14 20 -11 11z m-62 -150 c-7 -7 -12
-8 -12 -2 0 6 3 14 7 17 3 4 9 5 12 2 2 -3 -1 -11 -7 -17z"/>
<path d="M4196 3534 c-5 -14 -4 -15 9 -4 17 14 19 20 6 20 -5 0 -12 -7 -15
-16z"/>
<path d="M4318 3543 c-9 -2 -15 -10 -12 -17 3 -7 -2 -19 -11 -26 -16 -14 -20
-30 -7 -30 5 0 17 16 28 35 10 20 24 33 31 30 7 -2 13 0 13 5 0 10 -12 11 -42
3z"/>
<path d="M4440 3539 c0 -5 5 -7 10 -4 6 3 10 8 10 11 0 2 -4 4 -10 4 -5 0 -10
-5 -10 -11z"/>
<path d="M4383 3529 c-6 -6 -21 -16 -34 -23 -23 -12 -28 -28 -10 -34 6 -2 11
3 11 12 0 9 5 16 10 16 6 0 20 9 32 20 12 11 17 20 12 20 -6 0 -15 -5 -21 -11z"/>
<path d="M4145 3500 c-25 -27 -10 -39 16 -13 12 11 17 23 11 27 -5 3 -17 -3
-27 -14z"/>
<path d="M4190 3504 c0 -17 17 -36 24 -26 3 5 -1 15 -9 22 -8 7 -15 9 -15 4z"/>
<path d="M4244 3496 c-10 -8 -16 -17 -13 -20 3 -4 17 2 30 13 27 23 13 28 -17
7z"/>
<path d="M4405 3496 c-19 -14 -18 -15 12 -13 18 1 32 6 30 11 -5 16 -22 17
-42 2z"/>
<path d="M4489 3493 c-13 -17 -13 -17 6 -3 11 8 22 16 24 17 2 2 0 3 -6 3 -6
0 -17 -8 -24 -17z"/>
<path d="M4535 3490 c-3 -5 -1 -10 4 -10 6 0 11 5 11 10 0 6 -2 10 -4 10 -3 0
-8 -4 -11 -10z"/>
<path d="M4955 3479 c-4 -6 -5 -12 -2 -15 2 -3 7 2 10 11 7 17 1 20 -8 4z"/>
<path d="M4360 3471 c0 -6 5 -11 11 -11 5 0 8 -4 5 -8 -2 -4 0 -14 5 -22 7
-11 9 -7 7 14 -3 27 -28 51 -28 27z"/>
<path d="M4313 3456 c3 -7 1 -18 -5 -24 -16 -16 -2 -42 22 -42 13 0 18 4 15
11 -4 6 -13 8 -21 5 -11 -4 -12 -2 -4 14 13 25 13 50 -1 50 -6 0 -9 -6 -6 -14z"/>
<path d="M4610 3460 c0 -5 5 -10 11 -10 5 0 7 5 4 10 -3 6 -8 10 -11 10 -2 0
-4 -4 -4 -10z"/>
<path d="M4210 3439 c-13 -24 -4 -41 10 -19 10 16 13 40 5 40 -2 0 -9 -9 -15
-21z"/>
<path d="M4465 3451 c3 -5 -2 -17 -11 -25 -8 -9 -12 -16 -7 -16 5 0 14 5 21
12 15 15 28 3 15 -14 -5 -7 -13 -22 -16 -33 -7 -19 -6 -19 7 -2 7 9 24 17 37
17 21 1 22 2 6 11 -9 6 -15 14 -12 20 4 5 1 9 -5 9 -7 0 -10 7 -6 15 4 10 -1
15 -15 15 -11 0 -18 -4 -14 -9z"/>
<path d="M4550 3443 c0 -10 4 -14 8 -8 4 6 11 13 16 18 5 4 2 7 -7 7 -10 0
-17 -8 -17 -17z"/>
<path d="M4185 3440 c3 -5 8 -10 11 -10 2 0 4 5 4 10 0 6 -5 10 -11 10 -5 0
-7 -4 -4 -10z"/>
<path d="M4415 3440 c-3 -5 -1 -10 4 -10 6 0 11 5 11 10 0 6 -2 10 -4 10 -3 0
-8 -4 -11 -10z"/>
<path d="M4247 3423 c-13 -12 -7 -35 7 -30 7 3 19 0 25 -6 19 -19 12 3 -7 23
-10 11 -22 17 -25 13z"/>
<path d="M4080 3400 c-8 -5 -11 -10 -6 -10 5 0 2 -7 -5 -17 -11 -13 -11 -17
-1 -20 6 -3 12 -11 12 -19 0 -8 4 -14 9 -14 13 0 22 16 14 24 -11 11 -14 46
-4 46 5 0 12 -6 14 -12 3 -7 6 -3 6 10 1 23 -14 28 -39 12z"/>
<path d="M4566 3394 c-5 -13 -4 -14 7 -6 8 7 17 9 20 5 4 -3 7 -1 7 5 0 18
-27 14 -34 -4z"/>
<path d="M4625 3390 c3 -5 11 -10 16 -10 6 0 7 5 4 10 -3 6 -11 10 -16 10 -6
0 -7 -4 -4 -10z"/>
<path d="M4305 3370 c-3 -5 -1 -10 4 -10 6 0 11 5 11 10 0 6 -2 10 -4 10 -3 0
-8 -4 -11 -10z"/>
<path d="M4341 3371 c-8 -6 -9 -11 -3 -15 6 -3 14 -1 17 5 9 14 2 20 -14 10z"/>
<path d="M4885 3370 c-3 -5 -1 -10 4 -10 6 0 11 5 11 10 0 6 -2 10 -4 10 -3 0
-8 -4 -11 -10z"/>
<path d="M4253 3350 c-1 -16 4 -20 28 -20 16 0 29 5 29 11 0 6 -9 8 -22 4 -17
-6 -20 -4 -15 9 4 9 1 16 -6 16 -7 0 -13 -9 -14 -20z"/>
<path d="M4380 3359 c0 -5 5 -7 10 -4 6 3 10 8 10 11 0 2 -4 4 -10 4 -5 0 -10
-5 -10 -11z"/>
<path d="M4419 3353 c-13 -16 -12 -17 4 -4 16 13 21 21 13 21 -2 0 -10 -8 -17
-17z"/>
<path d="M4575 3360 c-3 -5 -2 -10 4 -10 5 0 13 5 16 10 3 6 2 10 -4 10 -5 0
-13 -4 -16 -10z"/>
<path d="M4665 3360 c-4 -7 -1 -16 6 -21 12 -8 12 -11 -1 -18 -8 -6 -11 -13
-7 -17 4 -4 13 -1 21 7 10 11 11 19 1 37 -9 16 -15 20 -20 12z"/>
<path d="M4920 3359 c0 -5 5 -7 10 -4 6 3 10 8 10 11 0 2 -4 4 -10 4 -5 0 -10
-5 -10 -11z"/>
<path d="M4620 3350 c0 -5 5 -10 10 -10 6 0 10 5 10 10 0 6 -4 10 -10 10 -5 0
-10 -4 -10 -10z"/>
<path d="M4020 3334 c0 -8 5 -12 10 -9 6 4 8 11 5 16 -9 14 -15 11 -15 -7z"/>
<path d="M4450 3341 c0 -6 5 -11 10 -11 6 0 10 -11 10 -25 0 -14 -4 -25 -10
-25 -5 0 -10 7 -10 16 0 8 -4 12 -10 9 -5 -3 -10 -13 -10 -21 0 -11 10 -14 40
-12 25 2 40 8 40 16 0 7 -4 11 -9 7 -5 -3 -13 0 -17 6 -3 6 0 15 7 20 16 9 12
14 -18 23 -14 5 -23 3 -23 -3z"/>
<path d="M4760 3340 c0 -5 5 -10 11 -10 5 0 7 5 4 10 -3 6 -8 10 -11 10 -2 0
-4 -4 -4 -10z"/>
<path d="M4845 3340 c-3 -5 1 -10 10 -10 9 0 13 5 10 10 -3 6 -8 10 -10 10 -2
0 -7 -4 -10 -10z"/>
<path d="M4360 3331 c0 -6 5 -13 10 -16 6 -3 10 1 10 9 0 9 -4 16 -10 16 -5 0
-10 -4 -10 -9z"/>
<path d="M4515 3320 c4 -6 11 -8 16 -5 14 9 11 15 -7 15 -8 0 -12 -5 -9 -10z"/>
<path d="M4587 3323 c-4 -3 -7 -11 -7 -17 0 -6 5 -5 12 2 6 6 9 14 7 17 -3 3
-9 2 -12 -2z"/>
<path d="M4630 3320 c-8 -5 -12 -12 -9 -15 4 -3 12 1 19 10 14 17 11 19 -10 5z"/>
<path d="M4330 3311 c0 -5 -8 -12 -17 -14 -11 -3 -7 -5 10 -6 31 -1 37 -21 6
-21 -21 0 -21 0 2 -25 13 -13 30 -25 38 -25 9 0 12 -8 9 -25 -4 -18 -1 -25 11
-25 11 0 17 10 19 30 2 23 -1 28 -13 24 -8 -4 -15 -1 -15 5 0 6 -7 11 -15 11
-8 0 -15 4 -15 9 0 5 7 14 15 21 8 7 15 16 15 21 0 5 -7 9 -15 9 -8 0 -15 5
-15 10 0 6 -4 10 -10 10 -5 0 -10 -4 -10 -9z"/>
<path d="M4955 3300 c3 -5 8 -10 11 -10 2 0 4 5 4 10 0 6 -5 10 -11 10 -5 0
-7 -4 -4 -10z"/>
<path d="M4760 3280 c-13 -8 -12 -10 3 -10 9 0 17 5 17 10 0 12 -1 12 -20 0z"/>
<path d="M4251 3271 c-12 -8 -12 -12 2 -25 10 -10 18 -12 22 -6 3 5 0 10 -7
10 -8 1 -6 6 6 15 22 17 2 22 -23 6z"/>
<path d="M4575 3271 c-9 -16 9 -20 23 -5 10 12 10 14 -2 14 -8 0 -17 -4 -21
-9z"/>
<path d="M4620 3268 c0 -5 12 -5 28 -2 39 10 41 15 4 12 -18 -1 -32 -6 -32
-10z"/>
<path d="M4697 3261 c-4 -17 -3 -21 5 -13 5 5 8 16 6 23 -3 8 -7 3 -11 -10z"/>
<path d="M4380 3260 c0 -5 7 -10 15 -10 8 0 15 5 15 10 0 6 -7 10 -15 10 -8 0
-15 -4 -15 -10z"/>
<path d="M4503 3258 c-21 -7 -33 -17 -33 -29 0 -13 -5 -17 -17 -13 -15 5 -16
4 -3 -5 12 -8 18 -6 29 9 7 11 19 20 25 20 7 0 21 7 32 15 22 17 13 17 -33 3z"/>
<path d="M4435 3250 c-3 -5 1 -10 10 -10 9 0 13 5 10 10 -3 6 -8 10 -10 10 -2
0 -7 -4 -10 -10z"/>
<path d="M4645 3229 c-4 -17 -4 -33 -1 -36 3 -4 6 3 6 15 0 11 5 24 10 27 13
8 13 25 1 25 -5 0 -12 -14 -16 -31z"/>
<path d="M4835 3250 c3 -5 10 -10 16 -10 5 0 9 5 9 10 0 6 -7 10 -16 10 -8 0
-12 -4 -9 -10z"/>
<path d="M4950 3250 c0 -5 5 -10 11 -10 5 0 7 5 4 10 -3 6 -8 10 -11 10 -2 0
-4 -4 -4 -10z"/>
<path d="M4605 3240 c3 -5 8 -10 11 -10 2 0 4 5 4 10 0 6 -5 10 -11 10 -5 0
-7 -4 -4 -10z"/>
<path d="M4778 3243 c7 -3 16 -2 19 1 4 3 -2 6 -13 5 -11 0 -14 -3 -6 -6z"/>
<path d="M3940 3230 c0 -5 5 -10 10 -10 6 0 10 5 10 10 0 6 -4 10 -10 10 -5 0
-10 -4 -10 -10z"/>
<path d="M4540 3230 c0 -5 6 -10 14 -10 8 0 18 5 21 10 3 6 -3 10 -14 10 -12
0 -21 -4 -21 -10z"/>
<path d="M4821 3222 c-1 -13 3 -21 8 -18 5 3 11 -1 15 -9 8 -22 22 -18 22 5 0
12 -7 20 -17 20 -10 0 -20 6 -22 13 -3 6 -6 2 -6 -11z"/>
<path d="M4703 3219 c-18 -5 -33 -14 -33 -19 0 -13 17 -13 25 1 4 6 13 8 20 5
8 -3 19 2 25 10 14 16 9 16 -37 3z"/>
<path d="M4931 3204 c0 -11 3 -14 6 -6 3 7 2 16 -1 19 -3 4 -6 -2 -5 -13z"/>
<path d="M4973 3205 c0 -9 4 -14 9 -13 5 2 10 8 10 13 0 5 -5 11 -10 13 -5 1
-9 -4 -9 -13z"/>
<path d="M4570 3200 c0 -5 6 -10 14 -10 8 0 18 5 21 10 3 6 -3 10 -14 10 -12
0 -21 -4 -21 -10z"/>
<path d="M4760 3199 c0 -5 5 -7 10 -4 6 3 10 8 10 11 0 2 -4 4 -10 4 -5 0 -10
-5 -10 -11z"/>
<path d="M4430 3185 c-11 -14 -12 -19 -2 -22 6 -3 12 -12 12 -20 0 -9 6 -13
15 -9 10 4 15 -1 15 -14 0 -12 7 -20 16 -20 11 0 14 5 9 18 -18 43 -19 55 -2
49 9 -3 19 -2 22 3 4 6 -3 10 -14 10 -11 0 -23 -4 -26 -10 -10 -17 -23 -11
-27 12 -3 20 -4 21 -18 3z"/>
<path d="M5115 3180 c-3 -5 -1 -10 4 -10 6 0 11 5 11 10 0 6 -2 10 -4 10 -3 0
-8 -4 -11 -10z"/>
<path d="M4570 3165 c-8 -9 -8 -15 -2 -15 12 0 26 19 19 26 -2 2 -10 -2 -17
-11z"/>
<path d="M4636 3159 c-17 -17 -18 -19 -3 -19 9 0 17 -6 17 -14 0 -9 -7 -12
-20 -9 -17 5 -20 0 -20 -31 0 -35 1 -35 20 -19 11 10 20 23 20 30 0 7 8 13 18
13 10 0 13 3 6 8 -17 12 -23 39 -11 51 6 6 7 11 2 10 -6 0 -19 -9 -29 -20z m4
-58 c0 -6 -4 -13 -10 -16 -5 -3 -10 1 -10 9 0 9 5 16 10 16 6 0 10 -4 10 -9z"/>
<path d="M4805 3170 c4 -6 11 -8 16 -5 14 9 11 15 -7 15 -8 0 -12 -5 -9 -10z"/>
<path d="M4740 3141 c0 -25 -16 -36 -24 -16 -3 8 0 15 6 15 6 0 9 2 6 5 -9 9
-38 -6 -38 -20 0 -15 35 -26 56 -18 7 3 13 16 12 29 -3 29 -18 33 -18 5z"/>
<path d="M4975 3150 c3 -5 8 -10 11 -10 2 0 4 5 4 10 0 6 -5 10 -11 10 -5 0
-7 -4 -4 -10z"/>
<path d="M4789 3133 c-13 -16 -12 -17 4 -4 9 7 17 15 17 17 0 8 -8 3 -21 -13z"/>
<path d="M5075 3121 c-3 -5 -1 -12 5 -16 5 -3 10 1 10 9 0 18 -6 21 -15 7z"/>
<path d="M4420 3110 c0 -5 5 -10 10 -10 6 0 10 5 10 10 0 6 -4 10 -10 10 -5 0
-10 -4 -10 -10z"/>
<path d="M4825 3110 c3 -5 8 -10 11 -10 2 0 4 5 4 10 0 6 -5 10 -11 10 -5 0
-7 -4 -4 -10z"/>
<path d="M4928 3113 c7 -3 16 -2 19 1 4 3 -2 6 -13 5 -11 0 -14 -3 -6 -6z"/>
<path d="M4770 3100 c0 -5 5 -10 11 -10 5 0 7 5 4 10 -3 6 -8 10 -11 10 -2 0
-4 -4 -4 -10z"/>
<path d="M4900 3090 c0 -5 5 -10 10 -10 6 0 10 5 10 10 0 6 -4 10 -10 10 -5 0
-10 -4 -10 -10z"/>
<path d="M5220 3085 c0 -8 4 -15 10 -15 5 0 7 7 4 15 -4 8 -8 15 -10 15 -2 0
-4 -7 -4 -15z"/>
<path d="M4426 3075 c-3 -9 0 -15 8 -15 7 0 19 7 26 15 10 12 9 15 -8 15 -11
0 -22 -7 -26 -15z"/>
<path d="M4730 3080 c0 -5 7 -10 15 -10 8 0 15 5 15 10 0 6 -7 10 -15 10 -8 0
-15 -4 -15 -10z"/>
<path d="M4926 3074 c-9 -23 -7 -34 5 -34 6 0 9 7 5 15 -3 8 -1 15 4 15 6 0
10 5 10 10 0 16 -17 12 -24 -6z"/>
<path d="M4984 3074 c-18 -14 -18 -15 4 -4 12 6 22 13 22 15 0 8 -5 6 -26 -11z"/>
<path d="M5040 3079 c0 -5 5 -7 10 -4 6 3 10 8 10 11 0 2 -4 4 -10 4 -5 0 -10
-5 -10 -11z"/>
<path d="M4870 3059 c0 -11 5 -17 10 -14 6 3 10 13 10 21 0 8 -4 14 -10 14 -5
0 -10 -9 -10 -21z"/>
<path d="M4627 3045 c-16 -12 -16 -13 8 -17 26 -5 30 -1 17 19 -5 8 -12 8 -25
-2z"/>
<path d="M5005 3050 c3 -5 8 -10 11 -10 2 0 4 5 4 10 0 6 -5 10 -11 10 -5 0
-7 -4 -4 -10z"/>
<path d="M4570 3041 c0 -6 5 -13 10 -16 6 -3 10 1 10 9 0 9 -4 16 -10 16 -5 0
-10 -4 -10 -9z"/>
<path d="M4740 3040 c0 -5 5 -10 10 -10 6 0 10 5 10 10 0 6 -4 10 -10 10 -5 0
-10 -4 -10 -10z"/>
<path d="M4816 3041 c-4 -5 -2 -12 3 -15 5 -4 12 -2 15 3 4 5 2 12 -3 15 -5 4
-12 2 -15 -3z"/>
<path d="M5165 3040 c-3 -5 -1 -10 4 -10 6 0 11 5 11 10 0 6 -2 10 -4 10 -3 0
-8 -4 -11 -10z"/>
<path d="M3536 3525 c-3 -9 0 -15 9 -15 8 0 15 7 15 15 0 8 -4 15 -9 15 -5 0
-11 -7 -15 -15z"/>
</g>
</svg>
